<svg width="30" height="29" fill="none" xmlns="http://www.w3.org/2000/svg"><path d="M28.667 14.771c0-1.188-.096-2.055-.304-2.954H14.839v5.363h7.938c-.16 1.332-1.024 3.34-2.945 4.688l-.027.18 4.276 3.323.297.03c2.72-2.521 4.289-6.23 4.289-10.63" fill="#4285F4"/><path d="M14.84 28.9c3.89 0 7.155-1.284 9.54-3.5l-4.546-3.532c-1.216.85-2.849 1.445-4.993 1.445-3.81 0-7.042-2.52-8.195-6.005l-.169.015-4.446 3.451-.058.163C4.34 25.657 9.207 28.9 14.84 28.9z" fill="#34A853"/><path d="M6.643 17.308a8.921 8.921 0 01-.48-2.858c0-.995.176-1.959.464-2.858l-.008-.191-4.502-3.508-.147.07A14.501 14.501 0 00.434 14.45a14.5 14.5 0 001.536 6.487l4.673-3.629" fill="#FFD584"/><path d="M14.84 5.587c2.705 0 4.53 1.172 5.57 2.152l4.065-3.982C21.98 1.43 18.73 0 14.841 0 9.207 0 4.34 3.243 1.973 7.964l4.657 3.628c1.168-3.484 4.401-6.005 8.21-6.005" fill="#EB4335"/></svg>