<svg width="687" height="687" viewBox="0 0 687 687" fill="none" xmlns="http://www.w3.org/2000/svg"><path d="M356.266 74.606c.366-7.776-5.585-14.432-13.344-14.39a281.562 281.562 0 00-142.339 38.515c-43.247 25.295-78.868 61.663-103.297 105.244-3.791 6.781-.904 15.256 6.036 18.711 6.94 3.454 15.388.615 19.179-6.166 21.953-38.65 53.771-70.929 92.305-93.497 38.534-22.567 82.25-34.455 126.7-34.687 7.759-.042 14.334-5.956 14.76-13.73z" fill="#7768D8"/><path d="M117.021 199.399c-6.578-4.15-15.245-2.192-19.036 4.589a283.935 283.935 0 00-36.116 143.377 283.036 283.036 0 0040.958 142.008c4.027 6.623 12.806 8.295 19.181 3.899 6.433-4.395 8.041-13.145 4.015-19.825-22.851-38.191-35.342-81.821-36.09-126.595-.748-44.775 10.274-88.82 31.824-127.77 3.734-6.84 1.783-15.533-4.736-19.683z" fill="#F47B7A"/><path d="M107.467 470.494c-6.83 3.744-9.369 12.302-5.342 18.983 27.626 45.411 67.532 82.198 115.246 105.895a280.274 280.274 0 00153.856 27.919c7.713-.804 13.028-8.027 11.819-15.771-1.151-7.685-8.351-12.958-16.122-12.213a252.737 252.737 0 01-137.044-25.29 253.84 253.84 0 01-103.025-94.1c-4.028-6.564-12.559-9.109-19.388-5.423z" fill="#F4B709"/><path d="M332.298 611.769c.216 7.786 6.642 13.981 14.41 13.412 51.029 0 115.449-22.095 156.596-50.82 41.147-28.666 73.841-67.835 94.863-113.347 3.271-7.082-.262-15.334-7.444-18.266-7.183-2.932-15.351.614-18.68 7.637-18.892 40.4-48.128 75.18-84.729 100.706-36.66 25.526-97.011 42.072-141.286 45.701-7.77.744-13.947 7.191-13.73 14.977z" fill="#FA8C02"/><path d="M568.32 488.423c6.878 3.687 15.497 1.085 18.825-5.938 27.247-49.757 38.935-108.349 36.47-155.025-2.465-46.676-16.619-91.973-40.958-131.769-4.086-6.624-12.923-8.297-19.357-3.902-6.433 4.395-8.1 13.143-4.072 19.766a252.582 252.582 0 0136.131 117.409c2.202 41.581-8.214 97.932-33.183 140.22-3.271 7.082-.734 15.61 6.144 19.239z" fill="#2983FB"/><path d="M574.108 207.831c6.716-3.921 9.082-12.599 4.819-19.109a282.303 282.303 0 00-100.7-93.592 281.193 281.193 0 00-132.914-34.872c-7.815-.076-13.877 6.49-13.545 14.336.332 7.847 6.879 13.81 14.634 13.944 41.285.65 81.872 11.41 118.217 31.402 36.345 19.991 67.119 48.488 89.857 83.049 4.322 6.452 12.915 8.764 19.632 4.842z" fill="#9AD7D9"/><path d="M404.91 487.505v12.52h-2.508v-12.52h2.508zm1.866 7.547c0-.995.175-1.873.584-2.692.408-.76.991-1.404 1.691-1.813.7-.41 1.458-.644 2.333-.644.641 0 1.283.117 1.866.41.583.292 1.05.643 1.399 1.111v-4.68h2.567v13.28h-2.567v-1.462c-.291.468-.758.877-1.341 1.17a4.32 4.32 0 01-1.983.468 4.501 4.501 0 01-2.333-.644c-.699-.409-1.283-1.053-1.691-1.813-.291-.819-.525-1.697-.525-2.691zm7.932 0c0-.585-.117-1.112-.35-1.58-.233-.468-.583-.761-.992-.995a2.7 2.7 0 00-1.341-.351c-.466 0-.933.117-1.283.351-.408.234-.7.585-.991.995-.234.41-.35.936-.35 1.521 0 .585.116 1.112.35 1.58.233.468.583.76.991 1.053.408.234.875.351 1.283.351a2.7 2.7 0 001.341-.351 2.69 2.69 0 00.992-.995c.233-.409.35-.936.35-1.579zm14.346-.176c0 .351 0 .702-.058.995h-7.348c.058.702.291 1.287.758 1.696.466.41.991.585 1.633.585.933 0 1.633-.409 2.041-1.228h2.741c-.292.936-.875 1.755-1.691 2.398-.817.585-1.808.936-3.033.936-.991 0-1.808-.234-2.624-.643-.758-.41-1.342-1.053-1.808-1.814-.408-.76-.642-1.696-.642-2.691 0-1.053.234-1.93.642-2.691.408-.76.991-1.404 1.749-1.814a5.456 5.456 0 012.625-.643c.933 0 1.808.175 2.566.585a4.216 4.216 0 011.749 1.755c.467.702.7 1.58.7 2.574zm-2.624-.76c0-.644-.233-1.17-.7-1.521-.467-.41-1.05-.585-1.691-.585-.642 0-1.167.175-1.575.585-.408.351-.7.877-.758 1.579h4.724v-.058zm3.849.936c0-.995.175-1.873.583-2.692.408-.76.933-1.404 1.633-1.813.7-.41 1.458-.644 2.333-.644.758 0 1.399.176 1.983.468.583.293 1.049.702 1.341 1.112v-1.404h2.566v9.945h-2.566v-1.462c-.35.468-.758.877-1.341 1.17a4.324 4.324 0 01-1.983.468 4.66 4.66 0 01-2.333-.644c-.7-.409-1.225-1.053-1.633-1.813-.408-.819-.583-1.697-.583-2.691zm7.873 0c0-.585-.117-1.112-.35-1.58-.233-.468-.583-.761-.991-.995a2.706 2.706 0 00-1.342-.351c-.466 0-.933.117-1.283.351-.408.234-.7.585-.991.995-.233.409-.35.936-.35 1.521 0 .585.117 1.112.35 1.58.233.468.583.76.991 1.053.409.234.875.351 1.283.351.467 0 .933-.117 1.342-.351.408-.234.758-.585.991-.995.233-.409.35-.936.35-1.579zm7.99-2.925v4.797c0 .351.058.585.233.761.175.117.467.234.817.234h1.166v2.106h-1.575c-2.158 0-3.207-1.053-3.207-3.101v-4.797h-1.225v-2.048h1.225v-2.457h2.566v2.457h2.274v2.048h-2.274zm13.413 2.749c0 .351 0 .702-.058.995h-7.348c.058.702.291 1.287.758 1.696.466.41.991.585 1.633.585.933 0 1.633-.409 2.041-1.228h2.741c-.292.936-.875 1.755-1.691 2.398-.817.585-1.808.936-3.033.936-.991 0-1.808-.234-2.624-.643-.758-.41-1.342-1.053-1.808-1.814-.408-.76-.642-1.696-.642-2.691 0-1.053.234-1.93.642-2.691.408-.76.991-1.404 1.749-1.814a5.456 5.456 0 012.625-.643c.933 0 1.808.175 2.566.585a4.216 4.216 0 011.749 1.755c.467.702.7 1.58.7 2.574zm-2.624-.76c0-.644-.233-1.17-.7-1.521-.467-.41-1.05-.585-1.691-.585-.642 0-1.167.175-1.575.585-.408.351-.7.877-.758 1.579h4.724v-.058zm-240.159-3.452c0 .702-.174 1.345-.466 1.93-.292.585-.817 1.054-1.516 1.463-.7.351-1.517.527-2.566.527h-2.1v4.914h-2.508v-12.754h4.608c.991 0 1.807.176 2.507.527a3.55 3.55 0 011.517 1.404c.35.585.524 1.287.524 1.989zm-4.665 1.872c.7 0 1.225-.176 1.575-.468.349-.351.524-.761.524-1.346 0-1.228-.699-1.872-2.041-1.872h-1.983v3.686h1.925zm8.981-1.579c.35-.527.758-.936 1.283-1.287a3.606 3.606 0 011.808-.468v2.691h-.642c-.816 0-1.399.175-1.808.585-.408.351-.583 1.053-.583 1.989v5.031h-2.507v-10.121h2.507v1.58h-.058zm9.156 8.716a5.39 5.39 0 01-2.566-.643 4.504 4.504 0 01-1.808-1.814 5.973 5.973 0 01-.641-2.749c0-1.054.233-1.931.641-2.75.467-.819 1.05-1.404 1.866-1.814a5.456 5.456 0 012.625-.643c.933 0 1.808.234 2.624.643.758.41 1.4 1.053 1.808 1.814.467.819.7 1.696.7 2.75 0 1.053-.233 1.93-.7 2.749a4.635 4.635 0 01-1.866 1.814 5.866 5.866 0 01-2.683.643zm0-2.281a2.49 2.49 0 001.283-.351c.408-.234.758-.585.992-.995.233-.468.35-.994.35-1.638 0-.936-.234-1.697-.759-2.223-.466-.527-1.108-.761-1.807-.761-.7 0-1.342.234-1.808.761-.467.526-.7 1.228-.7 2.223 0 .936.233 1.697.7 2.223.466.527 1.049.761 1.749.761zm10.031-5.909v4.914c0 .351.058.585.233.761.175.117.467.234.817.234h1.166v2.165h-1.574c-2.1 0-3.208-1.053-3.208-3.16v-4.855h-1.166v-2.106h1.166v-2.516h2.566v2.516h2.216v2.106h-2.216v-.059zm8.456 8.19a5.39 5.39 0 01-2.566-.643 4.51 4.51 0 01-1.808-1.814 5.973 5.973 0 01-.641-2.749c0-1.054.233-1.931.641-2.75.467-.819 1.05-1.404 1.867-1.814a5.45 5.45 0 012.624-.643c.933 0 1.808.234 2.624.643.758.41 1.4 1.053 1.808 1.814.467.819.7 1.696.7 2.75 0 1.053-.233 1.93-.7 2.749a4.635 4.635 0 01-1.866 1.814c-.875.409-1.75.643-2.683.643zm0-2.281a2.49 2.49 0 001.283-.351c.409-.234.758-.585.992-.995.233-.468.35-.994.35-1.638 0-.936-.234-1.697-.759-2.223-.466-.527-1.108-.761-1.807-.761-.7 0-1.342.234-1.808.761-.467.526-.7 1.228-.7 2.223 0 .936.233 1.697.7 2.223.408.527.991.761 1.749.761zm9.973-5.909v4.914c0 .351.058.585.233.761.175.117.467.234.817.234h1.166v2.165h-1.575c-2.099 0-3.207-1.053-3.207-3.16v-4.855h-1.167v-2.106h1.167v-2.516h2.566v2.516h2.216v2.106h-2.216v-.059zm13.588-2.106l-6.182 14.86h-2.682l2.158-5.032-4.024-9.828h2.799l2.566 7.079 2.624-7.079h2.741zm3.849 1.463c.35-.468.758-.819 1.342-1.17a4.305 4.305 0 011.983-.468c.874 0 1.632.234 2.274.643.7.41 1.225 1.053 1.633 1.814.408.76.583 1.696.583 2.691 0 1.053-.175 1.931-.583 2.75s-.933 1.404-1.633 1.813c-.7.41-1.458.644-2.274.644-.759 0-1.4-.176-1.925-.468a4.322 4.322 0 01-1.341-1.17v6.376h-2.508v-14.918h2.508v1.463h-.059zm5.307 3.568a3.48 3.48 0 00-.35-1.579c-.233-.468-.583-.819-.991-.995a2.49 2.49 0 00-1.283-.351 2.49 2.49 0 00-1.283.351c-.408.234-.7.585-.991.995a3.48 3.48 0 00-.35 1.579c0 .585.116 1.112.35 1.58.233.468.583.819.991 1.053a2.49 2.49 0 001.283.351 2.49 2.49 0 001.283-.351c.408-.234.758-.585.991-1.053.175-.468.35-.995.35-1.58zm13.647-.175c0 .351 0 .702-.058.994h-7.29c.058.702.291 1.287.758 1.697.467.409.991.643 1.633.643.933 0 1.575-.409 1.983-1.228h2.741c-.292.994-.817 1.755-1.633 2.398-.817.644-1.808.936-3.033.936a5.39 5.39 0 01-2.566-.643c-.758-.41-1.341-1.053-1.808-1.814a5.973 5.973 0 01-.641-2.749c0-1.054.233-1.99.641-2.75a4.057 4.057 0 011.75-1.814 5.452 5.452 0 012.624-.643 5.39 5.39 0 012.566.643 4.23 4.23 0 011.75 1.755c.35.702.583 1.58.583 2.575zm-2.624-.761c0-.644-.234-1.17-.7-1.58-.467-.409-.992-.585-1.691-.585-.642 0-1.167.176-1.575.585-.408.351-.7.878-.758 1.58h4.724zM191.229 357.453v1.872h-3.383v9.653h-2.508v-9.653h-3.382v-1.872h9.273zm11.139 6.786c0 .351 0 .644-.059.878h-7.348c.058.643.292 1.17.758 1.579.467.351.992.585 1.633.585.933 0 1.633-.351 1.983-1.111h2.741c-.292.877-.817 1.638-1.691 2.164-.817.585-1.808.819-3.033.819-.991 0-1.808-.175-2.624-.585a4.58 4.58 0 01-1.808-1.696 4.815 4.815 0 01-.642-2.457c0-.936.234-1.756.642-2.516a3.655 3.655 0 011.749-1.638c.759-.41 1.633-.585 2.625-.585.933 0 1.808.175 2.566.585.758.351 1.341.936 1.749 1.579.584.702.759 1.463.759 2.399zm-2.625-.702c0-.585-.233-1.053-.7-1.404-.466-.351-.991-.527-1.691-.527-.641 0-1.166.176-1.575.527a2.115 2.115 0 00-.758 1.463h4.724v-.059zm8.34 5.616c-.817 0-1.575-.117-2.216-.409-.642-.293-1.167-.644-1.575-1.112-.35-.468-.583-.994-.641-1.521h2.566c.058.351.233.644.583.878.35.234.758.351 1.225.351.466 0 .874-.117 1.108-.293.291-.175.408-.409.408-.702 0-.292-.175-.526-.525-.643-.35-.176-.875-.293-1.575-.468a19.653 19.653 0 01-1.866-.527 3.473 3.473 0 01-1.225-.819c-.349-.351-.524-.878-.524-1.463 0-.526.175-.994.466-1.404.35-.409.758-.76 1.4-.994.583-.234 1.283-.351 2.099-.351 1.167 0 2.158.292 2.858.819.7.526 1.108 1.287 1.166 2.223h-2.449a1.386 1.386 0 00-.525-.878c-.292-.234-.7-.351-1.166-.351-.467 0-.817.059-1.05.234-.233.176-.35.351-.35.644 0 .292.175.526.525.702.35.175.875.293 1.574.468.7.176 1.342.351 1.808.527.467.175.875.468 1.225.819.35.351.525.877.525 1.462 0 .527-.175.995-.467 1.404-.291.41-.758.761-1.399.995-.525.292-1.225.409-1.983.409zm8.981-7.429v4.446c0 .293.058.527.233.702.175.117.467.176.817.176h1.166v1.93h-1.575c-2.157 0-3.207-.936-3.207-2.866v-4.447h-1.166v-1.93h1.166v-2.282h2.566v2.282h2.216v1.93h-2.216v.059zm-12.189-143.332v12.227h-2.507v-12.227h2.507zm14.755 2.339c1.225 0 2.216.351 2.916 1.112.758.702 1.108 1.755 1.108 3.042v5.675h-2.508v-5.324c0-.76-.175-1.345-.583-1.755-.408-.409-.933-.585-1.633-.585s-1.225.176-1.633.585c-.408.41-.583.995-.583 1.755v5.324h-2.508v-5.324c0-.76-.175-1.345-.583-1.755-.408-.409-.933-.585-1.633-.585s-1.224.176-1.633.585c-.408.41-.583.995-.583 1.755v5.324h-2.508v-9.712h2.508v1.171a3.8 3.8 0 011.225-.937 3.979 3.979 0 011.691-.351 5.03 5.03 0 012.1.468c.583.293 1.049.761 1.399 1.346.35-.585.758-.995 1.4-1.346.7-.292 1.341-.468 2.041-.468zm8.923 1.58a3.62 3.62 0 011.341-1.112 4.259 4.259 0 011.925-.468c.875 0 1.633.176 2.274.585.7.41 1.225.995 1.633 1.756.408.76.583 1.638.583 2.632 0 .995-.175 1.872-.583 2.633-.408.76-.933 1.345-1.633 1.755-.7.409-1.458.643-2.274.643-.7 0-1.4-.117-1.925-.409-.525-.293-.991-.644-1.341-1.112v5.968h-2.508v-14.275h2.508v1.404zm5.249 3.393c0-.585-.117-1.111-.35-1.521a2.703 2.703 0 00-.992-.994 2.49 2.49 0 00-1.283-.351c-.466 0-.875.117-1.283.351-.408.234-.7.526-.991.994-.233.41-.35.936-.35 1.521 0 .585.117 1.112.35 1.521.233.41.583.761.991.995.408.234.817.351 1.283.351a2.49 2.49 0 001.283-.351c.409-.234.7-.585.992-.995.233-.409.35-.936.35-1.521zm6.881-8.073v12.929h-2.507v-12.929h2.507zm11.722 7.898c0 .351 0 .643-.058.936h-7.231c.058.702.291 1.228.758 1.638.466.409.991.585 1.633.585.933 0 1.574-.41 1.982-1.17h2.683c-.291.936-.816 1.696-1.633 2.281-.816.585-1.808.878-2.974.878-.933 0-1.808-.176-2.566-.585a4.235 4.235 0 01-1.75-1.755 5.496 5.496 0 01-.641-2.633c0-.994.233-1.872.641-2.632a4.232 4.232 0 011.75-1.756c.758-.409 1.633-.585 2.566-.585.933 0 1.808.176 2.508.585.758.41 1.341.937 1.749 1.697.35.702.583 1.58.583 2.516zm-2.624-.702c0-.644-.233-1.112-.7-1.521-.466-.41-.991-.585-1.691-.585-.642 0-1.166.175-1.575.585a2.251 2.251 0 00-.758 1.521h4.724zm16.738-4.096c1.224 0 2.216.351 2.916 1.112.758.702 1.108 1.755 1.108 3.042v5.675h-2.508v-5.324c0-.76-.175-1.345-.583-1.755-.408-.409-.933-.585-1.633-.585s-1.225.176-1.633.585c-.408.41-.583.995-.583 1.755v5.324h-2.508v-5.324c0-.76-.175-1.345-.583-1.755-.408-.409-.933-.585-1.633-.585s-1.225.176-1.633.585c-.408.41-.583.995-.583 1.755v5.324h-2.508v-9.712h2.508v1.171c.35-.41.758-.703 1.224-.937a3.98 3.98 0 011.692-.351c.758 0 1.458.176 2.099.468.583.293 1.108.761 1.4 1.346.35-.585.758-.995 1.4-1.346a4.964 4.964 0 012.041-.468zm15.629 4.798c0 .351 0 .643-.058.936h-7.232c.059.702.292 1.228.758 1.638.467.409.992.585 1.633.585.934 0 1.575-.41 1.983-1.17h2.683c-.292.936-.817 1.696-1.633 2.281-.816.585-1.808.878-2.974.878-.933 0-1.808-.176-2.566-.585a4.23 4.23 0 01-1.75-1.755 5.496 5.496 0 01-.641-2.633c0-.994.233-1.872.641-2.632a4.226 4.226 0 011.75-1.756c.758-.409 1.633-.585 2.566-.585.933 0 1.808.176 2.507.585.759.41 1.342.937 1.75 1.697.35.702.583 1.58.583 2.516zm-2.566-.702c0-.644-.233-1.112-.7-1.521-.466-.41-.991-.585-1.691-.585-.641 0-1.166.175-1.575.585a2.251 2.251 0 00-.758 1.521h4.724zm9.856-4.096c1.166 0 2.158.351 2.858 1.112.7.702 1.108 1.755 1.108 3.042v5.675h-2.508v-5.324c0-.76-.175-1.345-.583-1.755-.408-.409-.933-.643-1.633-.643s-1.225.234-1.633.643c-.408.41-.583.995-.583 1.755v5.324h-2.508v-9.712h2.508v1.229c.35-.409.758-.761 1.283-.995a4.172 4.172 0 011.691-.351zm9.273 2.165v4.68c0 .351.058.585.233.702.175.117.467.234.817.234h1.166v2.048h-1.575c-2.099 0-3.149-.995-3.149-2.984v-4.68h-1.166v-1.989h1.166v-2.399h2.508v2.399h2.216v1.989h-2.216zm88.12-2.399v3.043h4.199v1.93h-4.199v3.218h4.782v1.989h-7.29v-12.11h7.29v1.989h-4.782v-.059zm19.42.41c1.225 0 2.217.351 2.916 1.112.759.702 1.109 1.696 1.109 2.983v5.617h-2.508v-5.324c0-.761-.175-1.346-.583-1.697-.409-.409-.934-.585-1.633-.585-.7 0-1.225.176-1.633.585-.409.41-.583.936-.583 1.697v5.324h-2.508v-5.324c0-.761-.175-1.346-.583-1.697-.409-.409-.934-.585-1.633-.585-.7 0-1.225.176-1.633.585-.409.41-.583.936-.583 1.697v5.324h-2.508v-9.595h2.508v1.17a3.806 3.806 0 011.224-.936 3.98 3.98 0 011.692-.351c.758 0 1.457.176 2.099.468.583.293 1.108.761 1.4 1.346a4.41 4.41 0 011.399-1.346c.642-.292 1.283-.468 2.041-.468zm8.982 1.521c.35-.468.758-.819 1.341-1.111a4.308 4.308 0 011.983-.468c.875 0 1.633.175 2.274.585.7.409 1.225.994 1.633 1.755.408.76.583 1.579.583 2.574 0 .994-.175 1.872-.583 2.633-.408.76-.933 1.345-1.633 1.755-.7.409-1.458.643-2.274.643-.758 0-1.4-.117-1.925-.409-.525-.293-.991-.644-1.341-1.112v5.909h-2.508v-14.158h2.508v1.404h-.058zm5.248 3.335c0-.585-.116-1.053-.35-1.463a2.7 2.7 0 00-.991-.994 2.49 2.49 0 00-1.283-.351 2.49 2.49 0 00-1.283.351c-.408.234-.7.526-.991.994-.234.41-.35.936-.35 1.521 0 .585.116 1.053.35 1.521.233.41.583.761.991.995a2.49 2.49 0 001.283.351 2.49 2.49 0 001.283-.351c.408-.234.758-.585.991-.995a3.48 3.48 0 00.35-1.579zm3.733 0c0-.995.175-1.814.583-2.574.408-.761.933-1.346 1.633-1.755.7-.41 1.458-.585 2.333-.585.758 0 1.399.117 1.924.409.583.293.992.644 1.342 1.112v-1.346h2.507v9.595h-2.507v-1.404c-.35.468-.759.819-1.342 1.111-.583.293-1.225.41-1.983.41a4.293 4.293 0 01-2.274-.644c-.7-.409-1.225-.994-1.633-1.755a5.777 5.777 0 01-.583-2.574zm7.815.058c0-.585-.117-1.111-.35-1.521a2.71 2.71 0 00-.992-.994 2.49 2.49 0 00-1.283-.351c-.466 0-.875.117-1.283.351-.408.234-.7.526-.991.994-.233.41-.35.936-.35 1.463 0 .585.117 1.111.35 1.521.233.409.583.76.991.995.408.234.817.351 1.283.351a2.49 2.49 0 001.283-.351c.408-.235.758-.527.992-.995.233-.351.35-.878.35-1.463zm7.931-2.808v4.622c0 .351.058.585.233.702.175.117.467.234.817.234h1.166v2.048h-1.575c-2.099 0-3.207-.995-3.207-2.984v-4.622h-1.166v-1.989h1.166v-2.399h2.508v2.399h2.216v1.989h-2.158zm9.623-2.106c.758 0 1.399.176 1.982.468a2.86 2.86 0 011.342 1.404c.35.585.525 1.346.525 2.224v5.616h-2.508v-5.324c0-.761-.175-1.346-.583-1.755-.409-.41-.933-.644-1.633-.644s-1.225.234-1.633.644c-.408.409-.583.994-.583 1.755v5.324h-2.508v-12.812h2.508v4.387c.35-.409.758-.76 1.283-.994.583-.176 1.166-.293 1.808-.293zm7.581-.994c-.467 0-.816-.117-1.108-.41a1.369 1.369 0 01-.408-.994c0-.41.116-.761.408-.995.292-.293.7-.41 1.108-.41.467 0 .816.117 1.108.41.292.293.467.585.467.995 0 .409-.175.76-.467.994-.292.234-.7.41-1.108.41zm1.225 1.111v9.595h-2.508v-9.595h2.508zm4.782 7.605h4.432v1.99h-7.29v-1.931l4.374-5.616h-4.315v-1.989h7.231v1.93l-4.432 5.616zm15.63-3.042c0 .351 0 .644-.059.936h-7.29c.059.702.292 1.229.758 1.638.467.41.992.586 1.633.586.934 0 1.575-.41 1.983-1.171h2.683c-.292.937-.816 1.697-1.633 2.282-.816.585-1.808.878-2.974.878-.933 0-1.808-.176-2.566-.585a4.226 4.226 0 01-1.75-1.756 5.43 5.43 0 01-.641-2.574c0-.994.233-1.872.641-2.632a4.218 4.218 0 011.75-1.755c.758-.41 1.633-.585 2.624-.585.933 0 1.808.175 2.508.585.758.409 1.341.936 1.749 1.696.35.702.584 1.521.584 2.457zm-2.625-.643c0-.644-.233-1.112-.7-1.463-.466-.409-.991-.585-1.691-.585-.641 0-1.166.176-1.575.527a2.251 2.251 0 00-.758 1.521h4.724zm-22.686 131.69c1.341 0 2.508.234 3.499.76.992.527 1.808 1.229 2.333 2.165.525.936.816 2.048.816 3.276 0 1.229-.291 2.34-.816 3.276-.525.936-1.341 1.638-2.333 2.165-.991.526-2.158.76-3.499.76h-4.432v-12.344h4.432v-.058zm-.117 10.238c1.342 0 2.333-.351 3.091-1.053.7-.702 1.108-1.697 1.108-2.984s-.35-2.282-1.108-2.984c-.7-.76-1.749-1.111-3.091-1.111h-1.808v8.19h1.808v-.058zm17.904-2.984c0 .351 0 .644-.058.936h-7.29c.058.702.292 1.287.758 1.638.467.41.992.585 1.633.585.933 0 1.633-.409 1.983-1.17h2.741c-.291.936-.816 1.697-1.633 2.341-.816.585-1.808.877-3.032.877-.992 0-1.808-.234-2.625-.643-.758-.41-1.341-.995-1.808-1.814a5.496 5.496 0 01-.641-2.633c0-.994.233-1.93.641-2.691a4.235 4.235 0 011.75-1.755 5.452 5.452 0 012.624-.643c.933 0 1.808.175 2.566.585a4.445 4.445 0 011.75 1.696c.466.878.641 1.755.641 2.691zm-2.624-.702c0-.643-.233-1.17-.7-1.521-.466-.409-.991-.585-1.691-.585-.642 0-1.166.176-1.575.585a2.25 2.25 0 00-.758 1.521h4.724zm9.098-1.989h-1.75v7.781h-2.566v-7.781h-1.166v-1.989h1.166v-.468c0-1.228.35-2.106 1.05-2.632.7-.585 1.749-.819 3.149-.819v2.106c-.641 0-1.05.117-1.283.292-.233.234-.35.585-.35 1.17v.41h1.75v1.93zm2.916-3.159c-.467 0-.817-.117-1.108-.41-.292-.292-.409-.643-.409-1.053 0-.409.117-.76.409-1.053.291-.292.699-.409 1.108-.409.466 0 .816.117 1.108.409.291.293.466.585.466 1.053 0 .468-.175.761-.466 1.053-.292.234-.7.41-1.108.41zm1.224 1.17v9.828h-2.507v-9.828h2.507zm8.048-.176c1.167 0 2.158.351 2.916 1.112.759.76 1.108 1.755 1.108 3.1v5.734h-2.507v-5.441c0-.761-.175-1.404-.583-1.814-.409-.409-.934-.643-1.633-.643-.7 0-1.225.234-1.633.643-.409.41-.584.995-.584 1.814v5.441h-2.507v-9.77h2.507v1.228c.35-.409.759-.76 1.283-.994.409-.293.992-.41 1.633-.41zm15.688 4.856c0 .351 0 .644-.058.936h-7.29c.058.702.292 1.287.758 1.638.467.41.992.585 1.633.585.933 0 1.633-.409 1.983-1.17h2.741c-.291.936-.816 1.697-1.633 2.341-.816.585-1.808.877-3.032.877-.992 0-1.808-.234-2.625-.643-.758-.41-1.341-.995-1.808-1.814a5.496 5.496 0 01-.641-2.633c0-.994.233-1.93.641-2.691a4.235 4.235 0 011.75-1.755 5.452 5.452 0 012.624-.643c.933 0 1.808.175 2.566.585a4.445 4.445 0 011.75 1.696c.408.878.641 1.755.641 2.691zm-2.624-.702c0-.643-.233-1.17-.7-1.521-.466-.409-.991-.585-1.691-.585-.642 0-1.166.176-1.575.585a2.25 2.25 0 00-.758 1.521h4.724z" fill="#E0E0E0"/><path d="M262.611 178.493v14.274H240.1v-22.172h14.463v-3.159h-14.405c-1.749 0-3.207 1.404-3.207 3.159v22.172c0 1.755 1.458 3.159 3.207 3.159h22.453c1.75 0 3.208-1.404 3.208-3.159v-14.274h-3.208zm-3.207 0l1.516-3.277 3.324-1.462-3.324-1.463-1.516-3.276-1.517 3.276-3.324 1.463 3.324 1.462 1.517 3.277zm-6.066 1.17l-1.982-4.33-1.983 4.33-4.432 1.989 4.432 1.989 1.983 4.329 1.982-4.329 4.433-1.989-4.433-1.989z" fill="#7768D8"/><path fill-rule="evenodd" clip-rule="evenodd" d="M202.251 317.144h8.048v-3.217h-8.048v3.217zm0 11.292h8.048v-3.218h-8.048v3.218zm9.564 7.254h-22.453c-1.749 0-3.207-1.463-3.207-3.218v-22.523c0-1.755 1.458-3.218 3.207-3.218h22.453c1.75 0 3.208 1.463 3.208 3.218v22.523c.058 1.755-1.4 3.218-3.208 3.218zm-20.82-16.088h8.048v-8.074h-8.048v8.074zm1.575-6.436h4.782v4.798h-4.782v-4.798zm-1.575 17.668h8.048v-8.073h-8.048v8.073zm1.575-6.435h4.782v4.797h-4.782v-4.797z" fill="#F47B7A"/><path d="M431.27 436.49c-.7 0-1.458.059-2.216.234-4.374.819-7.815 4.388-8.631 8.717-.758 4.154.758 7.957 3.499 10.414.7.585 1.05 1.462 1.05 2.34v3.685a3.14 3.14 0 003.149 3.16h.467c.525.936 1.574 1.579 2.741 1.579 1.166 0 2.157-.643 2.741-1.579h.466a3.14 3.14 0 003.149-3.16v-3.685c0-.878.35-1.755.992-2.34 2.274-2.048 3.732-4.973 3.732-8.308-.058-6.084-5.015-11.057-11.139-11.057zm3.15 25.39h-6.299v-1.579h6.299v1.579zm0-3.217h-6.299v-1.58h6.299v1.58zm-2.333-8.834v4.095h-1.575v-4.095l-2.916-2.867 1.108-1.111 2.566 2.574 2.566-2.574 1.108 1.111-2.857 2.867z" fill="#FA8C02"/><path d="M431.27 195.868l-2.274-2.106c-8.106-7.372-13.53-12.286-13.53-18.253 0-4.856 3.849-8.717 8.689-8.717 2.741 0 5.366 1.287 7.115 3.335 1.75-2.048 4.374-3.335 7.115-3.335 4.841 0 8.69 3.861 8.69 8.717 0 5.967-5.365 10.881-13.53 18.311l-2.275 2.048z" fill="#9AD7D9"/><path d="M489.998 331.653v-18.662l-9.448-9.653h-12.655c-1.75 0-3.149 1.462-3.149 3.218v25.741c0 1.755 1.399 3.217 3.149 3.217h18.954c.699 0 1.341-.234 1.866-.643l-6.999-7.137c-1.283.819-2.741 1.345-4.373 1.345-4.374 0-7.874-3.627-7.874-8.073 0-4.446 3.5-8.015 7.874-8.015 4.373 0 7.873 3.627 7.873 8.073a8.267 8.267 0 01-1.283 4.447l6.065 6.142zm-17.379-10.589c0 2.691 2.099 4.798 4.724 4.798 2.624 0 4.723-2.165 4.723-4.798 0-2.632-2.099-4.797-4.723-4.797-2.625 0-4.724 2.106-4.724 4.797z" fill="#2983FB"/><path d="M266.344 461.12l-8.398-8.424h-1.575l-4.024 4.037v1.579l8.398 8.424c.642.644 1.633.644 2.216 0l3.324-3.334a1.648 1.648 0 00.059-2.282z" fill="#F4B709"/><path d="M259.52 448.483l2.217-2.223 3.324 3.335a4.743 4.743 0 000-6.728l-5.599-5.616-2.216 2.223v-4.446l-1.108-1.112-5.599 5.616 1.108 1.112h4.491l-2.216 2.223 1.691 1.697-4.549 4.563-6.532-6.553v-2.223l-4.782-4.797-4.49 4.505 4.782 4.797h2.216l6.532 6.552-1.342 1.346h-3.324l-8.398 8.424c-.641.644-.641 1.638 0 2.224l3.324 3.334c.642.644 1.633.644 2.216 0l8.398-8.424v-3.335l8.107-8.132 1.749 1.638z" fill="#F4B709"/><path d="M34.35 342.418c0-159.069 119.438-290.174 273.225-308.017 8.69-.995 15.222-8.366 15.222-17.142 0-10.355-8.981-18.311-19.246-17.141C132.676 19.95 0 165.623 0 342.418c0 50.137 10.672 97.817 29.918 140.817 4.14 9.302 15.454 12.929 24.26 7.839 7.64-4.387 10.673-13.923 7.116-21.938-17.321-38.671-26.944-81.612-26.944-126.718zm652.65 0C687 165.622 554.324 19.95 383.39.118c-10.206-1.17-19.245 6.786-19.245 17.14 0 8.776 6.532 16.089 15.221 17.142 153.846 17.843 273.226 148.948 273.226 308.018 0 45.047-9.565 87.871-26.827 126.483-3.616 8.074-.525 17.551 7.115 21.939 8.806 5.09 20.12 1.462 24.261-7.839C676.328 440.059 687 392.438 687 342.418zm-75.64 183.816c-7.465-4.329-16.971-2.457-22.161 4.388-56.512 74.123-145.507 121.92-245.699 121.92-100.076 0-189.013-47.68-245.524-121.686-5.249-6.845-14.755-8.659-22.161-4.388-8.981 5.207-11.372 17.141-5.074 25.39C133.493 633.996 232.344 687 343.5 687c111.273 0 210.182-53.062 272.934-135.376 6.298-8.307 3.907-20.183-5.074-25.39z" fill="#1E1E1E"/><path d="M602.845 134.908l-9.331 7.781-2.391-2.867 1.283-1.053c-.641.059-1.283-.058-1.983-.351-.641-.292-1.224-.76-1.749-1.345a5.211 5.211 0 01-1.108-2.282c-.117-.819-.059-1.638.291-2.399.35-.819.933-1.521 1.75-2.223l5.424-4.563 2.391 2.867-5.074 4.212c-.642.526-.992 1.111-1.05 1.696-.058.585.117 1.17.583 1.755.467.586.992.878 1.633.878.642.059 1.225-.234 1.867-.702l5.073-4.212 2.391 2.808zm7.582 11.934c-.233 1.229-.991 2.341-2.274 3.335l-5.657 4.271-2.217-2.925 5.249-3.979c.642-.468 1.05-1.053 1.108-1.638.117-.585-.058-1.17-.466-1.755-.409-.585-.933-.877-1.575-.936-.583-.058-1.225.176-1.866.644l-5.249 3.978-2.274-2.984 9.681-7.371 2.274 2.984-1.283.994c.642 0 1.283.117 1.925.468.641.293 1.166.819 1.691 1.463.816 1.053 1.108 2.223.933 3.451zm1.341 4.447c1.05-.176 1.983 0 2.858.351a5.378 5.378 0 012.158 1.813c.466.644.699 1.346.816 2.106.117.761 0 1.404-.233 2.048l4.665-3.218 2.1 3.101-13.239 9.126-2.099-3.1 1.458-.995c-.7.059-1.341-.117-1.983-.468a4.804 4.804 0 01-1.691-1.58c-.583-.819-.875-1.696-.933-2.691-.059-.936.175-1.93.7-2.866.524-.936 1.283-1.755 2.332-2.457.992-.585 2.041-1.053 3.091-1.17zm3.383 6.903c.175-.702 0-1.404-.409-1.989-.408-.585-.991-.995-1.691-1.112-.7-.117-1.458.059-2.216.585-.758.527-1.225 1.17-1.4 1.872-.174.702 0 1.404.409 2.048.408.585.991.995 1.749 1.112.758.117 1.458-.059 2.275-.586.7-.585 1.108-1.17 1.283-1.93zm7.64 17.668l-4.433-7.137c-.583.468-.991.936-1.108 1.521-.116.585 0 1.111.35 1.638.467.76 1.167 1.111 2.041.994l2.1 3.394c-.758.234-1.575.292-2.391.234-.817-.117-1.575-.41-2.333-.878-.758-.468-1.341-1.17-1.866-1.989-.642-.995-.992-2.048-1.05-3.101a5.377 5.377 0 01.7-2.983c.525-.936 1.341-1.755 2.391-2.399 1.05-.644 2.158-1.053 3.208-1.112a5.335 5.335 0 012.974.703c.933.526 1.691 1.287 2.333 2.34.641.994.991 1.989 1.049 3.042a5.533 5.533 0 01-.641 2.925c-.525.936-1.283 1.696-2.275 2.34-.408.117-.699.293-1.049.468zm-.234-4.329c.525-.351.875-.819.933-1.346.117-.585-.058-1.111-.408-1.696-.35-.527-.758-.878-1.283-1.053-.525-.176-1.108-.117-1.749.117l2.507 3.978zm9.681 7.722c.642.351 1.167.936 1.575 1.58l-3.383 1.989-.525-.878c-.466-.819-.991-1.287-1.574-1.521-.583-.175-1.283-.058-2.158.468l-4.899 2.808-1.866-3.217 10.497-6.085 1.867 3.218-1.75.995c.875.058 1.575.234 2.216.643zm-6.823 11.057c-.058-.877.058-1.696.408-2.457.35-.702.817-1.287 1.516-1.696l1.75 3.276c-.35.234-.583.585-.641.994-.059.41 0 .878.233 1.346.233.409.466.702.758.819a.992.992 0 00.816 0c.292-.176.467-.468.409-.819 0-.41-.117-.995-.35-1.814-.233-.877-.408-1.638-.467-2.223-.058-.643 0-1.228.233-1.813.234-.585.7-1.112 1.458-1.463a3.3 3.3 0 011.925-.41c.7.059 1.341.352 1.983.878a6.891 6.891 0 011.691 2.106c.7 1.346.933 2.574.7 3.744-.233 1.112-.875 2.048-1.925 2.75l-1.633-3.042c.35-.234.525-.585.642-.936.058-.41 0-.819-.233-1.287-.234-.41-.409-.644-.7-.761a.862.862 0 00-.758 0c-.292.176-.467.468-.409.878 0 .409.117.994.35 1.755.234.877.35 1.638.409 2.281.058.585 0 1.229-.234 1.814-.233.644-.758 1.112-1.458 1.521-.641.351-1.283.468-1.982.351-.7-.117-1.342-.409-1.983-.877-.642-.468-1.167-1.229-1.633-2.048a8.85 8.85 0 01-.875-2.867zm10.206 13.865l-2.858 1.404-.816-1.696c-.584-1.229-.759-2.282-.525-3.277.233-.994 1.05-1.755 2.391-2.457l4.315-2.106-.641-1.345 2.799-1.346.642 1.346 2.683-1.287 1.632 3.334-2.682 1.287 1.05 2.165-2.8 1.345-1.05-2.223-4.374 2.165c-.349.175-.524.351-.583.585-.058.234 0 .526.175.878l.642 1.228zm6.648-.526c1.05.058 1.983.351 2.741.878.817.526 1.4 1.287 1.808 2.164.35.761.467 1.521.408 2.282-.058.76-.291 1.345-.641 1.93l1.574-.702 1.517 3.393-11.081 4.915-1.516-3.393 1.574-.702c-.641-.117-1.283-.352-1.866-.82-.583-.468-1.049-1.053-1.399-1.872-.409-.877-.525-1.813-.409-2.808.117-.936.525-1.813 1.225-2.632.7-.819 1.575-1.463 2.741-1.989 1.166-.469 2.275-.703 3.324-.644zm2.041 7.43c.292-.702.292-1.346 0-2.048a2.407 2.407 0 00-1.516-1.404c-.7-.234-1.458-.175-2.333.176-.874.351-1.399.936-1.691 1.579-.291.702-.291 1.404 0 2.048.292.702.817 1.17 1.516 1.404.7.234 1.458.175 2.333-.176.875-.351 1.458-.877 1.691-1.579zm9.39 16.146c-.525 1.112-1.575 1.989-3.091 2.575l-6.59 2.574-1.342-3.452 6.124-2.399c.758-.292 1.283-.702 1.516-1.287.233-.585.292-1.17 0-1.813a2.333 2.333 0 00-1.225-1.346c-.583-.234-1.224-.175-1.982.117l-6.124 2.399-1.341-3.452 11.314-4.446 1.341 3.452-1.516.585a4.248 4.248 0 011.749.936c.525.468.933 1.111 1.225 1.813.525 1.404.525 2.633-.058 3.744zm.116 4.622c1.05.117 1.925.527 2.683 1.112.758.585 1.283 1.404 1.575 2.34.233.761.35 1.521.233 2.223-.117.761-.35 1.346-.758 1.931l5.365-1.814 1.166 3.51-15.221 5.149-1.166-3.511 1.633-.585c-.642-.117-1.283-.468-1.808-.994-.525-.527-.933-1.17-1.225-1.989-.291-.936-.35-1.872-.116-2.808.233-.936.699-1.755 1.458-2.516.758-.761 1.691-1.346 2.915-1.755 1.109-.293 2.217-.468 3.266-.293zm1.4 7.606c.35-.644.408-1.346.175-2.048-.233-.702-.7-1.228-1.341-1.521-.642-.292-1.458-.351-2.333-.058-.875.292-1.516.76-1.866 1.462a2.51 2.51 0 00-.175 2.048c.233.702.7 1.228 1.341 1.521.7.292 1.458.351 2.333.058.875-.351 1.516-.819 1.866-1.462zm-624.248-5.968c1.166-.585 2.507-.585 4.024-.117l6.765 2.165-1.108 3.51-6.299-1.989c-.758-.234-1.4-.234-1.925.058a2.23 2.23 0 00-1.108 1.463c-.233.702-.175 1.287.117 1.813.292.527.817.936 1.516 1.17l6.299 1.989-1.108 3.511-6.299-1.99c-.758-.234-1.4-.234-1.924.059a2.227 2.227 0 00-1.108 1.463c-.234.702-.175 1.287.116 1.813.292.527.817.936 1.517 1.17l6.298 1.989-1.108 3.569-11.547-3.686 1.108-3.568 1.458.468a4.63 4.63 0 01-.7-1.755 3.821 3.821 0 01.233-2.107c.292-.877.7-1.579 1.283-2.164.584-.585 1.283-.936 2.1-1.112-.525-.585-.875-1.345-1.05-2.164-.175-.819-.117-1.638.117-2.457.35-1.522 1.166-2.516 2.332-3.101zm2.974-3.744c-.7-.76-1.167-1.638-1.342-2.574-.175-.936-.116-1.872.292-2.808a4.671 4.671 0 011.283-1.931c.583-.468 1.166-.76 1.808-.877l-1.575-.644 1.342-3.451 11.314 4.387-1.342 3.452-1.574-.644c.408.527.641 1.171.758 1.931.116.761 0 1.521-.35 2.282-.35.936-.933 1.696-1.691 2.223-.759.526-1.692.936-2.741.994-1.05.117-2.158-.058-3.325-.526-1.166-.41-2.1-.995-2.857-1.814zm3.79-6.728c-.7.293-1.166.761-1.4 1.463-.29.702-.232 1.346.06 2.048.29.643.874 1.17 1.749 1.521.875.351 1.633.351 2.333.058.7-.292 1.166-.76 1.458-1.462.291-.702.233-1.405-.059-2.048-.291-.702-.933-1.17-1.75-1.521-.932-.293-1.69-.351-2.39-.059zm10.206-11.232l2.916 1.228-.758 1.755c-.525 1.229-1.224 2.106-2.158 2.516-.874.409-2.04.351-3.44-.234l-4.433-1.931-.583 1.346-2.858-1.229.584-1.345-2.741-1.17 1.458-3.452 2.74 1.17.934-2.223 2.857 1.228-.933 2.224 4.49 1.93c.35.117.584.176.817.059.234-.117.409-.351.584-.702l.524-1.17zm3.908-13.281l-3.616 7.606c.7.292 1.341.292 1.866.058a2.38 2.38 0 001.225-1.17c.408-.819.291-1.58-.233-2.282l1.69-3.568c.642.526 1.109 1.17 1.459 1.93.35.761.525 1.58.525 2.457 0 .878-.234 1.756-.642 2.633-.525 1.053-1.166 1.931-2.041 2.574-.875.644-1.808.995-2.916 1.053-1.05.059-2.158-.175-3.324-.702-1.167-.526-2.041-1.228-2.683-2.106-.641-.877-.991-1.814-1.05-2.867-.058-1.053.175-2.106.7-3.217.525-1.053 1.167-1.931 1.983-2.516.817-.643 1.75-.936 2.8-1.053 1.05-.058 2.099.176 3.207.644a8.82 8.82 0 011.05.526zm-3.441 2.516c-.583-.293-1.108-.293-1.633-.059-.525.234-.933.644-1.225 1.229-.291.585-.35 1.111-.175 1.638.117.526.525.994 1.05 1.404l1.983-4.212zm1.166-12.286c-.058-.76.117-1.521.467-2.223l3.499 1.814-.467.936c-.408.819-.583 1.521-.408 2.165.117.585.642 1.111 1.517 1.579l5.015 2.574-1.691 3.335-10.79-5.616 1.692-3.335 1.808.936c-.35-.702-.583-1.463-.642-2.165zm.234-5.206c-.525.175-1.05.117-1.575-.117-.525-.293-.816-.702-.991-1.229-.117-.526-.059-1.111.291-1.696.292-.585.7-.936 1.283-1.112.525-.175 1.05-.117 1.575.176.466.292.816.702.933 1.228a2.332 2.332 0 01-.233 1.638c-.35.527-.758.936-1.283 1.112zm3.266-2.165l10.614 5.851-1.808 3.276-10.614-5.851 1.808-3.276zm3.849-1.404c-.584-.877-.875-1.813-.875-2.749 0-.936.233-1.873.758-2.75.408-.761.991-1.287 1.574-1.697.642-.351 1.283-.585 1.925-.585l-1.458-.877 1.925-3.218 10.38 6.26-1.924 3.218-1.458-.878c.291.585.408 1.287.408 1.989 0 .702-.291 1.463-.7 2.223-.525.878-1.166 1.521-2.04 1.931-.876.409-1.809.643-2.859.526-1.05-.058-2.1-.468-3.207-1.053a7.852 7.852 0 01-2.45-2.34zm4.84-5.967c-.7.175-1.283.585-1.633 1.228-.35.644-.467 1.288-.292 2.048.175.702.7 1.287 1.458 1.814.817.468 1.575.643 2.275.468.758-.176 1.283-.585 1.633-1.229.35-.643.466-1.287.291-2.047-.175-.703-.7-1.288-1.516-1.814-.7-.468-1.458-.644-2.216-.468zm-.642-13.865l13.53 8.716-1.982 3.16-13.53-8.717 1.982-3.159zm3.675-1.697c-.525.117-1.05.059-1.517-.292-.466-.351-.758-.761-.875-1.346-.116-.585.059-1.112.409-1.638.35-.527.816-.878 1.341-.995a1.942 1.942 0 011.575.293c.466.292.758.76.816 1.287.117.585-.058 1.111-.408 1.638-.35.585-.817.936-1.341 1.053zm3.44-1.814l10.09 6.787-2.042 3.1-10.089-6.786 2.041-3.101zm11.197-.234l3.033-4.329 2.508 1.755-5.424 7.723-2.39-1.697-2.042-7.664-2.916 4.095-2.508-1.755 5.366-7.605 2.39 1.696 1.984 7.781zm9.623-16.439l-5.132 6.669c.642.41 1.225.585 1.808.468.583-.117 1.05-.409 1.458-.877.583-.761.642-1.463.233-2.282l2.391-3.159a5.34 5.34 0 011.05 2.165 6.088 6.088 0 010 2.515c-.175.878-.583 1.697-1.225 2.457-.7.936-1.574 1.638-2.566 2.048-.99.41-1.982.585-3.032.41-1.05-.176-2.1-.644-3.091-1.405-.992-.76-1.691-1.638-2.158-2.632-.408-.995-.583-1.989-.408-3.042a6.256 6.256 0 011.341-2.984c.7-.936 1.575-1.638 2.508-2.048.933-.409 1.924-.585 2.974-.409 1.05.175 2.041.585 3.033 1.345.233.293.525.527.816.761zm-3.965 1.697c-.525-.41-1.05-.527-1.633-.41-.584.117-1.05.41-1.458.936-.409.468-.584 1.053-.525 1.58 0 .585.291 1.111.758 1.579l2.858-3.685zm220.505 525.532l-8.34-1.171c-.058.761.117 1.346.466 1.814.35.468.875.702 1.458.819.934.117 1.633-.175 2.1-.877l3.907.526c-.291.761-.758 1.404-1.399 1.989-.642.585-1.342.936-2.158 1.229-.817.234-1.75.292-2.741.175-1.167-.175-2.216-.585-3.033-1.17-.875-.643-1.458-1.462-1.866-2.457-.408-.994-.467-2.165-.292-3.393.175-1.229.584-2.34 1.225-3.159.642-.878 1.458-1.463 2.45-1.872a6.735 6.735 0 013.265-.293c1.167.176 2.158.527 2.975 1.17.816.644 1.458 1.404 1.808 2.399.408.994.466 2.047.349 3.276 0 .292-.116.644-.174.995zm-3.441-2.575c.116-.643-.059-1.17-.409-1.579a2.234 2.234 0 00-1.516-.761c-.641-.058-1.166 0-1.633.293-.466.292-.816.76-.991 1.404l4.549.643zm12.422 8.717l-1.983-3.569-2.275 3.159-4.024-.409 4.608-5.792-3.5-6.318 4.141.409 1.983 3.569 2.274-3.159 4.024.409-4.665 5.734 3.557 6.435-4.14-.468zm12.013-10.998a4.665 4.665 0 012.275-.41 5.418 5.418 0 012.683.878 5.095 5.095 0 011.807 2.281c.409.995.584 2.106.525 3.335-.058 1.228-.35 2.34-.874 3.276-.525.936-1.225 1.638-2.042 2.106a4.887 4.887 0 01-2.741.644c-.816-.059-1.574-.234-2.216-.644a4.804 4.804 0 01-1.458-1.404l-.408 7.488-3.732-.175.933-17.96 3.732.175-.117 1.697a5.905 5.905 0 011.633-1.287zm2.858 3.685c-.467-.585-1.108-.877-1.866-.877-.758-.059-1.4.175-1.925.702-.525.526-.816 1.228-.875 2.164-.058.936.175 1.697.642 2.223a2.258 2.258 0 001.808.878c.758.059 1.4-.175 1.924-.702.525-.526.875-1.229.875-2.165.117-.936-.116-1.638-.583-2.223zm10.614-7.546l-.291 16.146-3.733-.058.292-16.147 3.732.059zm5.249 15.62c-.933-.468-1.691-1.228-2.275-2.164-.583-.937-.874-2.048-.874-3.277 0-1.228.233-2.34.758-3.334a5.796 5.796 0 012.216-2.224 6.542 6.542 0 013.208-.819c1.166 0 2.274.234 3.207.702.992.468 1.75 1.229 2.275 2.165.583.936.874 2.048.874 3.276 0 1.229-.233 2.34-.816 3.335a5.558 5.558 0 01-2.275 2.223 6.53 6.53 0 01-3.207.819c-1.108 0-2.158-.234-3.091-.702zm4.957-3.335c.467-.526.758-1.287.7-2.281 0-.995-.292-1.697-.758-2.223-.467-.527-1.108-.761-1.808-.761s-1.342.293-1.808.819c-.467.527-.7 1.287-.7 2.282 0 .994.233 1.696.758 2.223.525.526 1.05.76 1.808.76.7 0 1.283-.292 1.808-.819zm11.839-8.366a4.482 4.482 0 012.158-.702l.233 3.92-1.05.058c-.933.059-1.633.293-2.041.702-.467.41-.642 1.112-.583 2.165l.291 5.616-3.732.176-.642-12.169 3.733-.176.116 2.048c.409-.643.875-1.229 1.517-1.638zm16.038 5.266l-8.398.76c.116.761.408 1.287.874 1.638.467.351.992.527 1.633.468.933-.058 1.517-.526 1.808-1.345l3.966-.351a4.953 4.953 0 01-.875 2.223c-.466.643-1.108 1.228-1.866 1.696a6.257 6.257 0 01-2.624.761c-1.167.117-2.275-.059-3.208-.468a5.488 5.488 0 01-2.333-1.989 6.387 6.387 0 01-1.049-3.218c-.117-1.287.058-2.398.466-3.393.408-.995 1.108-1.755 1.983-2.34s1.924-.936 3.091-1.053a6.503 6.503 0 013.207.468 5.34 5.34 0 012.333 1.93c.583.878.933 1.931 1.05 3.101-.058.351-.058.702-.058 1.112zm-3.908-1.755c-.058-.644-.291-1.112-.758-1.463-.466-.351-1.05-.468-1.691-.41-.642.059-1.108.293-1.516.702-.409.41-.584.937-.642 1.639l4.607-.468z" fill="#A0A0A0"/></svg>