<svg id="visual" viewBox="0 0 900 600" width="900" height="600" xmlns="http://www.w3.org/2000/svg" xmlns:xlink="http://www.w3.org/1999/xlink" version="1.1"><path d="M0 67L82 151L164 121L245 49L327 61L409 133L491 61L573 91L655 85L736 61L818 163L900 145L900 0L818 0L736 0L655 0L573 0L491 0L409 0L327 0L245 0L164 0L82 0L0 0Z" fill="#ffffff"></path><path d="M0 217L82 295L164 367L245 223L327 331L409 271L491 277L573 319L655 211L736 187L818 349L900 235L900 143L818 161L736 59L655 83L573 89L491 59L409 131L327 59L245 47L164 119L82 149L0 65Z" fill="#f2f2f2"></path><path d="M0 409L82 433L164 493L245 427L327 439L409 463L491 457L573 517L655 475L736 445L818 493L900 457L900 233L818 347L736 185L655 209L573 317L491 275L409 269L327 329L245 221L164 365L82 293L0 215Z" fill="#e5e5e5"></path><path d="M0 517L82 523L164 541L245 541L327 529L409 529L491 523L573 559L655 541L736 505L818 541L900 499L900 455L818 491L736 443L655 473L573 515L491 455L409 461L327 437L245 425L164 491L82 431L0 407Z" fill="#d8d8d8"></path><path d="M0 601L82 601L164 601L245 601L327 601L409 601L491 601L573 601L655 601L736 601L818 601L900 601L900 497L818 539L736 503L655 539L573 557L491 521L409 527L327 527L245 539L164 539L82 521L0 515Z" fill="#cccccc"></path></svg>