<svg width="643" height="723" viewBox="0 0 643 723" fill="none" xmlns="http://www.w3.org/2000/svg"><path d="M550 322c0 126.473-102.303 229-228.5 229S93 448.473 93 322 195.303 93 321.5 93 550 195.527 550 322z" fill="#1E1E1E"/><path d="M424 322c0 56.333-46.115 102-103 102s-103-45.667-103-102 46.115-102 103-102 103 45.667 103 102z" fill="#121212"/><path fill-rule="evenodd" clip-rule="evenodd" d="M322.083 137.688h5.417v-2.25h-5.417v2.25zm0 7.874h5.417v-2.25h-5.417v2.25zm6.5 5.063h-15.166c-1.192 0-2.167-1.013-2.167-2.25v-15.75c0-1.238.975-2.25 2.167-2.25h15.166c1.192 0 2.167 1.012 2.167 2.25v15.75c0 1.237-.975 2.25-2.167 2.25zm-14.083-11.25h5.417v-5.625H314.5v5.625zm1.083-4.5h3.25v3.375h-3.25v-3.375zM314.5 147.25h5.417v-5.625H314.5v5.625zm1.083-4.5h3.25v3.375h-3.25v-3.375z" fill="#F47B7A"/><path d="M13 627.5c0-8.56 6.94-15.5 15.5-15.5h583c8.56 0 15.5 6.94 15.5 15.5v1c0 8.56-6.94 15.5-15.5 15.5h-583c-8.56 0-15.5-6.94-15.5-15.5v-1z" fill="#FA8C02"/><path d="M16.86 341.701c-8.854.564-15.617 8.207-14.61 17.023a321.323 321.323 0 00330.507 284.69c8.868-.311 15.425-8.131 14.671-16.972-.754-8.841-8.534-15.35-17.403-15.089A289.177 289.177 0 0162.587 451.111a289.193 289.193 0 01-28.226-94.434c-1.055-8.811-8.645-15.54-17.5-14.976z" fill="#FA8C02"/><path d="M152.013 68.406c-4.926-7.38-14.931-9.4-22.055-4.11A321.327 321.327 0 0018.374 428.89c2.944 8.371 12.366 12.295 20.579 8.937 8.212-3.358 12.102-12.728 9.205-21.114a289.195 289.195 0 0199.667-325.657c7.095-5.328 9.115-15.27 4.188-22.65z" fill="#F4B709"/><path d="M536.668 105.661c6.254-6.274 6.28-16.458-.279-22.413C480.49 32.502 408.405 2.99 332.723.215c-75.679-2.774-149.716 21.38-209.158 67.894-6.978 5.461-7.696 15.623-1.914 22.338 5.806 6.744 15.961 7.45 23.002 2.006 53.267-41.18 119.356-62.535 186.898-60.06 67.544 2.477 131.905 28.616 182.034 73.589 6.623 5.942 16.801 5.98 23.083-.321z" fill="#F47B7A"/><path d="M603.673 438.736c8.202 3.385 17.636-.51 20.607-8.871a321.323 321.323 0 00-107.615-362.84c-7.049-5.39-17.081-3.51-22.111 3.799-5.03 7.31-3.151 17.278 3.868 22.706a289.189 289.189 0 0196.114 324.062c-2.925 8.377.935 17.759 9.137 21.144z" fill="#7768D8"/><path d="M302.722 626.967c-.545 8.856 6.194 16.52 15.067 16.623a321.323 321.323 0 00319.574-262.317c1.629-8.723-4.575-16.827-13.367-18.018-8.793-1.191-16.841 4.985-18.518 13.698a289.198 289.198 0 01-285.711 234.521c-8.873-.053-16.499 6.637-17.045 15.493z" fill="#9AD7D9"/><path d="M13 627.5c0-8.56 6.94-15.5 15.5-15.5h292c8.56 0 15.5 6.94 15.5 15.5v1c0 8.56-6.94 15.5-15.5 15.5h-292c-8.56 0-15.5-6.94-15.5-15.5v-1z" fill="#2983FB"/><path d="M312.188 164.832v1.808h-2.976V176h-2.24v-9.36h-2.976v-1.808h8.192zm9.875 6.544c0 .32-.022.608-.064.864h-6.48c.053.64.277 1.141.672 1.504.394.363.88.544 1.456.544.832 0 1.424-.357 1.776-1.072h2.416a4.083 4.083 0 01-1.472 2.112c-.726.544-1.616.816-2.672.816-.854 0-1.622-.187-2.304-.56a4.124 4.124 0 01-1.584-1.616c-.374-.693-.56-1.493-.56-2.4 0-.917.186-1.723.56-2.416a3.905 3.905 0 011.568-1.6c.672-.373 1.445-.56 2.32-.56.842 0 1.594.181 2.256.544.672.363 1.189.88 1.552 1.552.373.661.56 1.424.56 2.288zm-2.32-.64c-.011-.576-.219-1.035-.624-1.376-.406-.352-.902-.528-1.488-.528-.555 0-1.024.171-1.408.512-.374.331-.603.795-.688 1.392h4.208zm7.347 5.408c-.726 0-1.376-.128-1.952-.384-.576-.267-1.035-.624-1.376-1.072a2.725 2.725 0 01-.544-1.488h2.256c.042.341.208.624.496.848.298.224.666.336 1.104.336.426 0 .757-.085.992-.256.245-.171.368-.389.368-.656 0-.288-.15-.501-.448-.64-.288-.149-.752-.309-1.392-.48a12.15 12.15 0 01-1.632-.496 2.902 2.902 0 01-1.088-.784c-.299-.352-.448-.827-.448-1.424 0-.491.138-.939.416-1.344.288-.405.693-.725 1.216-.96.533-.235 1.157-.352 1.872-.352 1.056 0 1.898.267 2.528.8.629.523.976 1.232 1.04 2.128h-2.144a1.127 1.127 0 00-.448-.832c-.256-.213-.603-.32-1.04-.32-.406 0-.72.075-.944.224a.717.717 0 00-.32.624c0 .299.149.528.448.688.298.149.762.304 1.392.464.64.16 1.168.325 1.584.496.416.171.773.437 1.072.8.309.352.469.821.48 1.408 0 .512-.144.971-.432 1.376-.278.405-.683.725-1.216.96-.523.224-1.136.336-1.84.336zm7.934-7.168v4.288c0 .299.07.517.208.656.15.128.395.192.736.192h1.04V176H335.6c-1.888 0-2.832-.917-2.832-2.752v-4.272h-1.056v-1.84h1.056v-2.192h2.256v2.192h1.984v1.84h-1.984zm122.687 114.856c1.173 0 2.203.229 3.088.688a4.845 4.845 0 012.064 1.968c.491.843.736 1.824.736 2.944 0 1.12-.245 2.101-.736 2.944-.48.832-1.168 1.477-2.064 1.936-.885.459-1.915.688-3.088.688h-3.904v-11.168h3.904zm-.08 9.264c1.173 0 2.08-.32 2.72-.96.64-.64.96-1.541.96-2.704 0-1.163-.32-2.069-.96-2.72-.64-.661-1.547-.992-2.72-.992h-1.584v7.376h1.584zm15.885-2.72c0 .32-.021.608-.064.864h-6.48c.053.64.277 1.141.672 1.504s.88.544 1.456.544c.832 0 1.424-.357 1.776-1.072h2.416a4.083 4.083 0 01-1.472 2.112c-.725.544-1.616.816-2.672.816-.853 0-1.621-.187-2.304-.56a4.124 4.124 0 01-1.584-1.616c-.373-.693-.56-1.493-.56-2.4 0-.917.187-1.723.56-2.416a3.905 3.905 0 011.568-1.6c.672-.373 1.445-.56 2.32-.56.843 0 1.595.181 2.256.544.672.363 1.189.88 1.552 1.552.373.661.56 1.424.56 2.288zm-2.32-.64c-.011-.576-.219-1.035-.624-1.376-.405-.352-.901-.528-1.488-.528-.555 0-1.024.171-1.408.512-.373.331-.603.795-.688 1.392h4.208zm7.651 3.2l2.24-6.8h2.384l-3.28 8.864h-2.72l-3.264-8.864h2.4l2.24 6.8zm14.122-2.56c0 .32-.021.608-.064.864h-6.48c.053.64.277 1.141.672 1.504s.88.544 1.456.544c.832 0 1.424-.357 1.776-1.072h2.416a4.083 4.083 0 01-1.472 2.112c-.725.544-1.616.816-2.672.816-.853 0-1.621-.187-2.304-.56a4.124 4.124 0 01-1.584-1.616c-.373-.693-.56-1.493-.56-2.4 0-.917.187-1.723.56-2.416a3.905 3.905 0 011.568-1.6c.672-.373 1.445-.56 2.32-.56.843 0 1.595.181 2.256.544.672.363 1.189.88 1.552 1.552.373.661.56 1.424.56 2.288zm-2.32-.64c-.011-.576-.219-1.035-.624-1.376-.405-.352-.901-.528-1.488-.528-.555 0-1.024.171-1.408.512-.373.331-.603.795-.688 1.392h4.208zm6.195-6.576V295h-2.24v-11.84h2.24zm6.149 11.984c-.853 0-1.621-.187-2.304-.56a4.203 4.203 0 01-1.616-1.616c-.384-.693-.576-1.493-.576-2.4 0-.907.197-1.707.592-2.4a4.168 4.168 0 011.648-1.6c.693-.384 1.467-.576 2.32-.576.853 0 1.627.192 2.32.576a4.065 4.065 0 011.632 1.6c.405.693.608 1.493.608 2.4 0 .907-.208 1.707-.624 2.4a4.252 4.252 0 01-1.664 1.616c-.693.373-1.472.56-2.336.56zm0-1.952c.405 0 .784-.096 1.136-.288.363-.203.651-.501.864-.896.213-.395.32-.875.32-1.44 0-.843-.224-1.488-.672-1.936a2.143 2.143 0 00-1.616-.688c-.64 0-1.179.229-1.616.688-.427.448-.64 1.093-.64 1.936s.208 1.493.624 1.952c.427.448.96.672 1.6.672zm8.507-5.776c.288-.405.683-.741 1.184-1.008.512-.277 1.094-.416 1.744-.416.758 0 1.44.187 2.048.56.619.373 1.104.907 1.456 1.6.363.683.544 1.477.544 2.384 0 .907-.181 1.712-.544 2.416-.352.693-.837 1.232-1.456 1.616a3.754 3.754 0 01-2.048.576c-.65 0-1.226-.133-1.728-.4a3.737 3.737 0 01-1.2-1.008v5.488h-2.24v-13.088h2.24v1.28zm4.688 3.12c0-.533-.112-.992-.336-1.376a2.185 2.185 0 00-.864-.896 2.265 2.265 0 00-1.152-.304c-.405 0-.789.107-1.152.32-.352.203-.64.501-.864.896-.213.395-.32.859-.32 1.392 0 .533.107.997.32 1.392.224.395.512.699.864.912.363.203.747.304 1.152.304.416 0 .8-.107 1.152-.32a2.29 2.29 0 00.864-.912c.224-.395.336-.864.336-1.408zm-383.18-6.704c1.173 0 2.203.229 3.088.688a4.845 4.845 0 012.064 1.968c.491.843.736 1.824.736 2.944 0 1.12-.245 2.101-.736 2.944-.48.832-1.168 1.477-2.064 1.936-.885.459-1.915.688-3.088.688h-3.904v-11.168h3.904zm-.08 9.264c1.173 0 2.08-.32 2.72-.96.64-.64.96-1.541.96-2.704 0-1.163-.32-2.069-.96-2.72-.64-.661-1.547-.992-2.72-.992h-1.584v7.376h1.584zm15.885-2.72c0 .32-.022.608-.064.864h-6.48c.053.64.277 1.141.672 1.504.394.363.88.544 1.456.544.832 0 1.424-.357 1.776-1.072h2.416a4.083 4.083 0 01-1.472 2.112c-.726.544-1.616.816-2.672.816-.854 0-1.622-.187-2.304-.56a4.124 4.124 0 01-1.584-1.616c-.374-.693-.56-1.493-.56-2.4 0-.917.186-1.723.56-2.416a3.905 3.905 0 011.568-1.6c.672-.373 1.445-.56 2.32-.56.842 0 1.594.181 2.256.544.672.363 1.189.88 1.552 1.552.373.661.56 1.424.56 2.288zm-2.32-.64c-.011-.576-.219-1.035-.624-1.376-.406-.352-.902-.528-1.488-.528-.555 0-1.024.171-1.408.512-.374.331-.603.795-.688 1.392h4.208zm6.195-2.32c.288-.405.682-.741 1.184-1.008.512-.277 1.093-.416 1.744-.416.757 0 1.44.187 2.048.56.618.373 1.104.907 1.456 1.6.362.683.544 1.477.544 2.384 0 .907-.182 1.712-.544 2.416a3.974 3.974 0 01-1.456 1.616 3.756 3.756 0 01-2.048.576c-.651 0-1.227-.133-1.728-.4a3.715 3.715 0 01-1.2-1.008v5.488h-2.24v-13.088h2.24v1.28zm4.688 3.12c0-.533-.112-.992-.336-1.376a2.198 2.198 0 00-.864-.896 2.265 2.265 0 00-1.152-.304c-.406 0-.79.107-1.152.32-.352.203-.64.501-.864.896-.214.395-.32.859-.32 1.392 0 .533.106.997.32 1.392.224.395.512.699.864.912a2.32 2.32 0 001.152.304c.416 0 .8-.107 1.152-.32.362-.213.65-.517.864-.912.224-.395.336-.864.336-1.408zm6.156-7.376V295h-2.24v-11.84h2.24zm6.149 11.984c-.854 0-1.622-.187-2.304-.56a4.196 4.196 0 01-1.616-1.616c-.384-.693-.576-1.493-.576-2.4 0-.907.197-1.707.592-2.4a4.162 4.162 0 011.648-1.6c.693-.384 1.466-.576 2.32-.576.853 0 1.626.192 2.32.576a4.065 4.065 0 011.632 1.6c.405.693.608 1.493.608 2.4 0 .907-.208 1.707-.624 2.4a4.258 4.258 0 01-1.664 1.616c-.694.373-1.472.56-2.336.56zm0-1.952c.405 0 .784-.096 1.136-.288.362-.203.65-.501.864-.896.213-.395.32-.875.32-1.44 0-.843-.224-1.488-.672-1.936a2.145 2.145 0 00-1.616-.688c-.64 0-1.179.229-1.616.688-.427.448-.64 1.093-.64 1.936s.208 1.493.624 1.952c.426.448.96.672 1.6.672zm14.747-7.056l-5.488 13.056h-2.384l1.92-4.416-3.552-8.64h2.512l2.288 6.192 2.32-6.192h2.384zM114.122 718l-2.464-4.352h-1.056V718h-2.24v-11.168h4.192c.864 0 1.6.155 2.208.464.608.299 1.061.709 1.36 1.232.309.512.464 1.088.464 1.728 0 .736-.214 1.403-.64 2-.427.587-1.062.992-1.904 1.216l2.672 4.528h-2.592zm-3.52-6.032h1.872c.608 0 1.061-.144 1.36-.432.298-.299.448-.709.448-1.232 0-.512-.15-.907-.448-1.184-.299-.288-.752-.432-1.36-.432h-1.872v3.28zm16.25 1.408c0 .32-.022.608-.064.864h-6.48c.053.64.277 1.141.672 1.504.394.363.88.544 1.456.544.832 0 1.424-.357 1.776-1.072h2.416a4.083 4.083 0 01-1.472 2.112c-.726.544-1.616.816-2.672.816-.854 0-1.622-.187-2.304-.56a4.124 4.124 0 01-1.584-1.616c-.374-.693-.56-1.493-.56-2.4 0-.917.186-1.723.56-2.416a3.905 3.905 0 011.568-1.6c.672-.373 1.445-.56 2.32-.56.842 0 1.594.181 2.256.544.672.363 1.189.88 1.552 1.552.373.661.56 1.424.56 2.288zm-2.32-.64c-.011-.576-.219-1.035-.624-1.376-.406-.352-.902-.528-1.488-.528-.555 0-1.024.171-1.408.512-.374.331-.603.795-.688 1.392h4.208zm3.379.816c0-.885.181-1.669.544-2.352a4.149 4.149 0 011.504-1.616 3.914 3.914 0 012.08-.576c.629 0 1.184.123 1.664.368.49.235.885.539 1.184.912v-1.152h2.256v13.088h-2.256v-5.44c-.299.384-.699.704-1.2.96-.502.256-1.067.384-1.696.384a3.887 3.887 0 01-2.064-.576 4.196 4.196 0 01-1.472-1.632c-.363-.693-.544-1.483-.544-2.368zm6.976.016c0-.544-.112-1.013-.336-1.408a2.299 2.299 0 00-.88-.896 2.237 2.237 0 00-1.136-.304 2.29 2.29 0 00-1.136.304c-.352.203-.64.501-.864.896-.224.384-.336.848-.336 1.392 0 .544.112 1.019.336 1.424.224.395.512.693.864.896a2.29 2.29 0 001.136.304c.405 0 .784-.101 1.136-.304.362-.203.656-.501.88-.896.224-.395.336-.864.336-1.408zm12.812-4.432V718h-2.256v-1.12a3.015 3.015 0 01-1.136.912c-.459.213-.96.32-1.504.32-.694 0-1.307-.144-1.84-.432a3.214 3.214 0 01-1.264-1.296c-.299-.576-.448-1.259-.448-2.048v-5.2h2.24v4.88c0 .704.176 1.248.528 1.632.352.373.832.56 1.44.56.618 0 1.104-.187 1.456-.56.352-.384.528-.928.528-1.632v-4.88h2.256zm3.346-1.056c-.395 0-.726-.123-.992-.368a1.284 1.284 0 01-.384-.944c0-.373.128-.683.384-.928.266-.256.597-.384.992-.384.394 0 .72.128.976.384.266.245.4.555.4.928s-.134.688-.4.944c-.256.245-.582.368-.976.368zm1.104 1.056V718h-2.24v-8.864h2.24zm4.453 1.376a3.173 3.173 0 011.12-1.104c.469-.267 1.002-.4 1.6-.4v2.352h-.592c-.704 0-1.238.165-1.6.496-.352.331-.528.907-.528 1.728V718h-2.24v-8.864h2.24v1.376zm12.469 2.864c0 .32-.022.608-.064.864h-6.48c.053.64.277 1.141.672 1.504.394.363.88.544 1.456.544.832 0 1.424-.357 1.776-1.072h2.416a4.083 4.083 0 01-1.472 2.112c-.726.544-1.616.816-2.672.816-.854 0-1.622-.187-2.304-.56a4.124 4.124 0 01-1.584-1.616c-.374-.693-.56-1.493-.56-2.4 0-.917.186-1.723.56-2.416a3.905 3.905 0 011.568-1.6c.672-.373 1.445-.56 2.32-.56.842 0 1.594.181 2.256.544.672.363 1.189.88 1.552 1.552.373.661.56 1.424.56 2.288zm-2.32-.64c-.011-.576-.219-1.035-.624-1.376-.406-.352-.902-.528-1.488-.528-.555 0-1.024.171-1.408.512-.374.331-.603.795-.688 1.392h4.208zm14.963-3.728c1.088 0 1.962.336 2.624 1.008.672.661 1.008 1.589 1.008 2.784v5.2h-2.24v-4.896c0-.693-.176-1.221-.528-1.584-.352-.373-.832-.56-1.44-.56s-1.094.187-1.456.56c-.352.363-.528.891-.528 1.584V718h-2.24v-4.896c0-.693-.176-1.221-.528-1.584-.352-.373-.832-.56-1.44-.56-.619 0-1.11.187-1.472.56-.352.363-.528.891-.528 1.584V718h-2.24v-8.864h2.24v1.072a2.997 2.997 0 011.104-.88c.458-.213.96-.32 1.504-.32.693 0 1.312.149 1.856.448.544.288.965.704 1.264 1.248a3.22 3.22 0 011.248-1.232 3.622 3.622 0 011.792-.464zm13.997 4.368c0 .32-.021.608-.064.864h-6.48c.054.64.278 1.141.672 1.504.395.363.88.544 1.456.544.832 0 1.424-.357 1.776-1.072h2.416a4.077 4.077 0 01-1.472 2.112c-.725.544-1.616.816-2.672.816-.853 0-1.621-.187-2.304-.56a4.124 4.124 0 01-1.584-1.616c-.373-.693-.56-1.493-.56-2.4 0-.917.187-1.723.56-2.416a3.911 3.911 0 011.568-1.6c.672-.373 1.446-.56 2.32-.56.843 0 1.595.181 2.256.544a3.75 3.75 0 011.552 1.552c.374.661.56 1.424.56 2.288zm-2.32-.64c-.01-.576-.218-1.035-.624-1.376-.405-.352-.901-.528-1.488-.528-.554 0-1.024.171-1.408.512-.373.331-.602.795-.688 1.392h4.208zm8.867-3.728c1.056 0 1.91.336 2.56 1.008.651.661.976 1.589.976 2.784v5.2h-2.24v-4.896c0-.704-.176-1.243-.528-1.616-.352-.384-.832-.576-1.44-.576-.618 0-1.109.192-1.472.576-.352.373-.528.912-.528 1.616V718h-2.24v-8.864h2.24v1.104a3.042 3.042 0 011.136-.896c.47-.224.982-.336 1.536-.336zm8.274 1.968v4.288c0 .299.07.517.208.656.15.128.395.192.736.192h1.04V718h-1.408c-1.888 0-2.832-.917-2.832-2.752v-4.272h-1.056v-1.84h1.056v-2.192h2.256v2.192h1.984v1.84h-1.984zm6.987 7.168c-.725 0-1.376-.128-1.952-.384-.576-.267-1.034-.624-1.376-1.072a2.733 2.733 0 01-.544-1.488h2.256c.043.341.208.624.496.848.299.224.667.336 1.104.336.427 0 .758-.085.992-.256.246-.171.368-.389.368-.656 0-.288-.149-.501-.448-.64-.288-.149-.752-.309-1.392-.48a12.242 12.242 0 01-1.632-.496 2.91 2.91 0 01-1.088-.784c-.298-.352-.448-.827-.448-1.424 0-.491.139-.939.416-1.344.288-.405.694-.725 1.216-.96.534-.235 1.158-.352 1.872-.352 1.056 0 1.899.267 2.528.8.63.523.976 1.232 1.04 2.128h-2.144a1.124 1.124 0 00-.448-.832c-.256-.213-.602-.32-1.04-.32-.405 0-.72.075-.944.224a.72.72 0 00-.32.624c0 .299.15.528.448.688.299.149.763.304 1.392.464.64.16 1.168.325 1.584.496.416.171.774.437 1.072.8.31.352.47.821.48 1.408 0 .512-.144.971-.432 1.376-.277.405-.682.725-1.216.96-.522.224-1.136.336-1.84.336zM191.864 477l-2.464-4.352h-1.056V477h-2.24v-11.168h4.192c.864 0 1.6.155 2.208.464.608.299 1.061.709 1.36 1.232.309.512.464 1.088.464 1.728 0 .736-.213 1.403-.64 2-.427.587-1.061.992-1.904 1.216l2.672 4.528h-2.592zm-3.52-6.032h1.872c.608 0 1.061-.144 1.36-.432.299-.299.448-.709.448-1.232 0-.512-.149-.907-.448-1.184-.299-.288-.752-.432-1.36-.432h-1.872v3.28zm16.25 1.408c0 .32-.021.608-.064.864h-6.48c.053.64.277 1.141.672 1.504s.88.544 1.456.544c.832 0 1.424-.357 1.776-1.072h2.416a4.083 4.083 0 01-1.472 2.112c-.725.544-1.616.816-2.672.816-.853 0-1.621-.187-2.304-.56a4.124 4.124 0 01-1.584-1.616c-.373-.693-.56-1.493-.56-2.4 0-.917.187-1.723.56-2.416a3.905 3.905 0 011.568-1.6c.672-.373 1.445-.56 2.32-.56.843 0 1.595.181 2.256.544.672.363 1.189.88 1.552 1.552.373.661.56 1.424.56 2.288zm-2.32-.64c-.011-.576-.219-1.035-.624-1.376-.405-.352-.901-.528-1.488-.528-.555 0-1.024.171-1.408.512-.373.331-.603.795-.688 1.392h4.208zm7.651 3.2l2.24-6.8h2.384l-3.28 8.864h-2.72l-3.264-8.864h2.4l2.24 6.8zm7.018-7.856c-.395 0-.725-.123-.992-.368a1.284 1.284 0 01-.384-.944c0-.373.128-.683.384-.928.267-.256.597-.384.992-.384s.72.128.976.384c.267.245.4.555.4.928s-.133.688-.4.944c-.256.245-.581.368-.976.368zm1.104 1.056V477h-2.24v-8.864h2.24zm10.453 4.24c0 .32-.021.608-.064.864h-6.48c.054.64.278 1.141.672 1.504.395.363.88.544 1.456.544.832 0 1.424-.357 1.776-1.072h2.416a4.077 4.077 0 01-1.472 2.112c-.725.544-1.616.816-2.672.816-.853 0-1.621-.187-2.304-.56a4.124 4.124 0 01-1.584-1.616c-.373-.693-.56-1.493-.56-2.4 0-.917.187-1.723.56-2.416a3.911 3.911 0 011.568-1.6c.672-.373 1.446-.56 2.32-.56.843 0 1.595.181 2.256.544a3.75 3.75 0 011.552 1.552c.374.661.56 1.424.56 2.288zm-2.32-.64c-.01-.576-.218-1.035-.624-1.376-.405-.352-.901-.528-1.488-.528-.554 0-1.024.171-1.408.512-.373.331-.602.795-.688 1.392h4.208zm16.243-3.6L239.831 477h-2.416l-1.616-6.192-1.616 6.192h-2.432l-2.608-8.864h2.272l1.568 6.752 1.696-6.752h2.368l1.664 6.736 1.568-6.736h2.144zm161.648-2.304c1.173 0 2.202.229 3.088.688a4.845 4.845 0 012.064 1.968c.49.843.736 1.824.736 2.944 0 1.12-.246 2.101-.736 2.944-.48.832-1.168 1.477-2.064 1.936-.886.459-1.915.688-3.088.688h-3.904v-11.168h3.904zm-.08 9.264c1.173 0 2.08-.32 2.72-.96.64-.64.96-1.541.96-2.704 0-1.163-.32-2.069-.96-2.72-.64-.661-1.547-.992-2.72-.992h-1.584v7.376h1.584zm15.884-2.72c0 .32-.021.608-.064.864h-6.48c.054.64.278 1.141.672 1.504.395.363.88.544 1.456.544.832 0 1.424-.357 1.776-1.072h2.416a4.077 4.077 0 01-1.472 2.112c-.725.544-1.616.816-2.672.816-.853 0-1.621-.187-2.304-.56a4.124 4.124 0 01-1.584-1.616c-.373-.693-.56-1.493-.56-2.4 0-.917.187-1.723.56-2.416a3.911 3.911 0 011.568-1.6c.672-.373 1.446-.56 2.32-.56.843 0 1.595.181 2.256.544a3.75 3.75 0 011.552 1.552c.374.661.56 1.424.56 2.288zm-2.32-.64c-.01-.576-.218-1.035-.624-1.376-.405-.352-.901-.528-1.488-.528-.554 0-1.024.171-1.408.512-.373.331-.602.795-.688 1.392h4.208zm7.347 5.408c-.725 0-1.376-.128-1.952-.384-.576-.267-1.034-.624-1.376-1.072a2.733 2.733 0 01-.544-1.488h2.256c.043.341.208.624.496.848.299.224.667.336 1.104.336.427 0 .758-.085.992-.256.246-.171.368-.389.368-.656 0-.288-.149-.501-.448-.64-.288-.149-.752-.309-1.392-.48a12.242 12.242 0 01-1.632-.496 2.91 2.91 0 01-1.088-.784c-.298-.352-.448-.827-.448-1.424 0-.491.139-.939.416-1.344.288-.405.694-.725 1.216-.96.534-.235 1.158-.352 1.872-.352 1.056 0 1.899.267 2.528.8.63.523.976 1.232 1.04 2.128h-2.144a1.124 1.124 0 00-.448-.832c-.256-.213-.602-.32-1.04-.32-.405 0-.72.075-.944.224a.72.72 0 00-.32.624c0 .299.15.528.448.688.299.149.763.304 1.392.464.64.16 1.168.325 1.584.496.416.171.774.437 1.072.8.31.352.47.821.48 1.408 0 .512-.144.971-.432 1.376-.277.405-.682.725-1.216.96-.522.224-1.136.336-1.84.336zm6.463-10.064c-.395 0-.725-.123-.992-.368a1.284 1.284 0 01-.384-.944c0-.373.128-.683.384-.928.267-.256.597-.384.992-.384s.72.128.976.384c.267.245.4.555.4.928s-.133.688-.4.944c-.256.245-.581.368-.976.368zm1.104 1.056V477h-2.24v-8.864h2.24zm5.685-.144c.661 0 1.243.133 1.744.4.501.256.896.592 1.184 1.008v-1.264h2.256v8.928c0 .821-.165 1.552-.496 2.192a3.622 3.622 0 01-1.488 1.536c-.661.384-1.461.576-2.4.576-1.259 0-2.293-.293-3.104-.88-.8-.587-1.253-1.387-1.36-2.4h2.224c.117.405.368.725.752.96.395.245.869.368 1.424.368.651 0 1.179-.197 1.584-.592.405-.384.608-.971.608-1.76v-1.376c-.288.416-.688.763-1.2 1.04-.501.277-1.077.416-1.728.416a3.807 3.807 0 01-2.048-.576c-.619-.384-1.109-.923-1.472-1.616-.352-.704-.528-1.509-.528-2.416 0-.896.176-1.691.528-2.384.363-.693.848-1.227 1.456-1.6a3.922 3.922 0 012.064-.56zm2.928 4.576c0-.544-.107-1.008-.32-1.392a2.185 2.185 0 00-.864-.896 2.269 2.269 0 00-1.168-.32c-.416 0-.8.101-1.152.304-.352.203-.64.501-.864.896-.213.384-.32.843-.32 1.376 0 .533.107 1.003.32 1.408.224.395.512.699.864.912.363.213.747.32 1.152.32.416 0 .805-.101 1.168-.304a2.32 2.32 0 00.864-.896c.213-.395.32-.864.32-1.408zm9.356-4.56c1.056 0 1.909.336 2.56 1.008.651.661.976 1.589.976 2.784v5.2h-2.24v-4.896c0-.704-.176-1.243-.528-1.616-.352-.384-.832-.576-1.44-.576-.619 0-1.109.192-1.472.576-.352.373-.528.912-.528 1.616V477h-2.24v-8.864h2.24v1.104a3.034 3.034 0 011.136-.896 3.518 3.518 0 011.536-.336z" fill="#E0E0E0"/><path d="M218 433.875c-5.417 0-10.042 3.369-11.917 8.125 1.875 4.756 6.5 8.125 11.917 8.125s10.043-3.369 11.917-8.125c-1.874-4.756-6.5-8.125-11.917-8.125zm0 13.542a5.42 5.42 0 01-5.417-5.417 5.42 5.42 0 015.417-5.417 5.42 5.42 0 015.417 5.417 5.42 5.42 0 01-5.417 5.417zm0-8.667a3.246 3.246 0 00-3.25 3.25 3.246 3.246 0 003.25 3.25 3.246 3.246 0 003.25-3.25 3.246 3.246 0 00-3.25-3.25z" fill="#FA8C02"/><path d="M172.375 674.625v15.75h-15.75v-15.75h15.75zm1.238-2.25h-18.225c-.563 0-1.013.45-1.013 1.013v18.225c0 .449.45 1.012 1.013 1.012h18.225c.449 0 1.012-.563 1.012-1.012v-18.225c0-.563-.563-1.013-1.012-1.013zm-10.238 4.5h6.75v2.25h-6.75v-2.25zm0 4.5h6.75v2.25h-6.75v-2.25zm0 4.5h6.75v2.25h-6.75v-2.25zm-4.5-9h2.25v2.25h-2.25v-2.25zm0 4.5h2.25v2.25h-2.25v-2.25zm0 4.5h2.25v2.25h-2.25v-2.25z" fill="#2983FB"/><path d="M167.769 257.295a8.427 8.427 0 00-8.269-6.795 8.432 8.432 0 00-7.481 4.545A6.743 6.743 0 00146 261.75a6.755 6.755 0 006.75 6.75h14.625a5.627 5.627 0 005.625-5.625c0-2.97-2.306-5.378-5.231-5.58zm-6.019 3.33v4.5h-4.5v-4.5h-3.375L159.5 255l5.625 5.625h-3.375z" fill="#F4B709"/><path d="M429.27 441.469l1.766-1.701-4.218-4.063-1.767 1.701-4.657-4.474a2.316 2.316 0 00-3.184 0l-2.138 2.058a2.115 2.115 0 000 3.066l4.647 4.474-5.344 5.157v4.063h4.219l5.355-5.157 4.646 4.474c1.069 1.029 2.509.65 3.184 0l2.137-2.058a2.114 2.114 0 000-3.066l-4.646-4.474zm-7.942-.477l-4.658-4.474 2.126-2.058 1.429 1.375-1.327 1.29 1.586 1.527 1.338-1.289 1.632 1.571-2.126 2.058zm8.864 8.548l-4.646-4.475 2.138-2.058 1.631 1.571-1.339 1.289 1.586 1.528 1.339-1.29 1.429 1.376-2.138 2.059zm4.107-12.914a1.052 1.052 0 000-1.527l-2.633-2.535c-.529-.509-1.26-.314-1.586 0l-2.059 1.982 4.219 4.063 2.059-1.983z" fill="#9AD7D9"/><path d="M477.583 251.625h10.834v2.25h2.166v-4.5c0-1.238-.975-2.239-2.166-2.239l-10.834-.011c-1.191 0-2.166 1.012-2.166 2.25v4.5h2.166v-2.25zm9.111 13.039l4.973-5.164-4.973-5.164-1.527 1.598 3.434 3.566-3.434 3.566 1.527 1.598zm-5.861-1.598l-3.434-3.566 3.434-3.566-1.527-1.598-4.973 5.164 4.973 5.164 1.527-1.598zm7.584 4.309h-10.834v-2.25h-2.166v4.5c0 1.237.975 2.25 2.166 2.25h10.834c1.191 0 2.166-1.013 2.166-2.25v-4.5h-2.166v2.25z" fill="#7768D8"/></svg>