<svg width="164" height="164" viewBox="0 0 164 164" fill="none" xmlns="http://www.w3.org/2000/svg">
<path d="M20.2642 152.606L45.8766 154.983L36.7251 140.186L20.2642 152.606Z" fill="#184077"/>
<path d="M142.206 153.615L115.999 155.992L125.21 141.195L142.206 153.615Z" fill="#184077"/>
<path d="M163.777 81.8898C163.777 127.113 127.112 163.778 81.8887 163.778C36.6657 163.778 0 127.113 0 81.8898C0 36.6668 36.6657 0.00116048 81.8887 0.00116048C126.874 -0.236542 163.54 36.0726 163.777 81.1173C163.777 81.355 163.777 81.5927 163.777 81.8898Z" fill="#3399FD"/>
<path d="M81.8886 144.345C116.382 144.345 144.345 116.382 144.345 81.8886C144.345 47.3948 116.382 19.4321 81.8886 19.4321C47.3948 19.4321 19.4321 47.3948 19.4321 81.8886C19.4321 116.382 47.3948 144.345 81.8886 144.345Z" fill="white" stroke="#56CCF2" stroke-width="2.87331" stroke-miterlimit="10"/>
<path d="M57.7616 103.757C60.3764 104.411 62.694 105.837 64.4173 107.917C64.9522 108.511 65.3681 109.165 65.7247 109.819H65.6058C64.5956 109.819 63.6448 109.819 62.6346 109.819C62.5751 109.819 62.5157 109.819 62.4563 109.759C60.9706 107.977 58.9502 106.788 56.692 106.253C55.5629 106.016 54.3744 105.956 53.2453 106.134C50.8088 106.491 48.5507 107.679 46.8867 109.581C46.7085 109.759 46.5302 109.878 46.2331 109.878C45.3417 109.878 44.4503 109.878 43.5589 109.878H43.3806C45.1634 106.847 48.0752 104.649 51.5219 103.817C50.5117 103.579 49.5609 103.223 48.6695 102.688C47.065 101.796 45.6388 100.548 44.5691 99.0627C44.4503 98.9439 44.4503 98.825 44.5691 98.7062C44.8663 98.3496 45.1634 97.9336 45.4605 97.5771C46.1142 96.8045 46.8273 96.1508 47.6593 95.616C47.7187 95.5566 47.7781 95.4972 47.7781 95.4377C47.9564 94.3087 49.0261 93.4767 50.1551 93.655C50.274 93.655 50.3929 93.7144 50.5117 93.7144C51.106 93.9521 51.5814 94.3681 51.8191 94.9029C52.1162 95.3783 52.1162 95.9726 51.9379 96.448C51.5814 97.4582 50.6306 98.0525 49.6203 97.8742C49.442 97.8148 49.3232 97.8148 49.1449 97.7553C49.0855 97.7553 49.0261 97.7553 49.0261 97.7553C48.6101 98.1119 48.1941 98.409 47.8375 98.7656L47.7781 98.825L48.313 99.3004C49.6797 100.489 51.2842 101.202 53.067 101.499C53.7801 101.618 54.4932 101.677 55.2063 101.618C56.2166 101.559 57.2268 101.321 58.1776 100.964C59.3067 100.548 60.3169 99.8947 61.2083 99.1221C61.3272 99.0033 61.5055 98.9439 61.6243 98.7656C61.7432 98.5873 61.6243 98.409 61.6243 98.2902C61.6243 97.4582 62.1591 96.6857 62.9317 96.3885C63.5259 96.1508 64.1202 96.1508 64.7145 96.3885C65.2493 96.5668 65.6058 96.9828 65.8435 97.5176C66.2595 98.3496 66.0812 99.3598 65.4276 100.014C65.071 100.43 64.5956 100.608 64.0608 100.667C63.8231 100.667 63.6448 100.667 63.4071 100.608C63.3477 100.608 63.2882 100.608 63.2882 100.667C62.694 101.261 61.9809 101.796 61.2678 102.272C60.6735 102.628 60.0198 102.985 59.4256 103.282C58.7719 103.46 58.2965 103.638 57.7616 103.757Z" fill="#010101"/>
<path d="M69.2309 107.323L70.9543 106.788C71.3703 107.62 72.1428 108.214 72.9748 108.512C74.6387 109.165 76.4809 109.046 78.0259 108.155C78.6796 107.798 79.155 107.264 79.4522 106.61C79.5116 106.372 79.571 106.135 79.571 105.897C79.571 105.481 79.571 105.005 79.571 104.59C79.3927 104.708 79.2739 104.827 79.0956 104.946C78.2042 105.481 77.2534 105.897 76.2432 106.016C75.0547 106.194 73.8661 106.075 72.7371 105.719C71.4297 105.362 70.3006 104.53 69.5281 103.401C68.5773 101.975 68.6367 100.133 69.6469 98.8252C70.36 97.8744 71.3108 97.1613 72.3805 96.8047C73.569 96.3293 74.817 96.2105 76.0649 96.3887C77.3128 96.5076 78.5014 96.983 79.4522 97.7555L79.5116 97.815V96.3887H81.2944V96.567C81.2944 99.7166 81.2944 102.866 81.2944 106.016C81.2944 107.026 80.9378 108.036 80.2841 108.809C79.4522 109.819 78.2637 110.473 77.0157 110.77C75.0547 111.305 72.9748 111.007 71.192 109.938C70.36 109.165 69.5875 108.393 69.2309 107.323C69.1715 107.383 69.2309 107.383 69.2309 107.323ZM75.1141 104.174C75.6489 104.174 76.2432 104.114 76.778 103.936C77.6694 103.698 78.4419 103.282 79.0362 102.569C79.8087 101.737 79.8087 100.489 79.0956 99.5977C78.6796 99.1223 78.2042 98.7064 77.61 98.4686C76.3026 97.8744 74.817 97.815 73.4502 98.2309C72.6182 98.4687 71.9051 98.8846 71.3108 99.5383C70.7166 100.192 70.5977 101.143 70.9543 101.915C71.192 102.391 71.5485 102.807 71.9645 103.104C72.8559 103.817 73.985 104.174 75.1141 104.174Z" fill="#010101"/>
<path d="M82.5423 96.2699H84.3251V96.4482C84.3251 97.9338 84.3251 99.4194 84.3251 100.905C84.3251 101.796 84.6816 102.628 85.3947 103.163C86.0484 103.698 86.8804 104.055 87.7124 104.174C88.9603 104.411 90.2677 104.233 91.3968 103.639C92.0504 103.342 92.6447 102.807 92.9418 102.153C93.1201 101.796 93.1795 101.44 93.1795 101.083V96.2104H95.0217V96.3293C95.0217 97.8744 95.0217 99.4194 95.0217 100.905C95.0217 102.153 94.4869 103.401 93.5361 104.233C92.5258 105.184 91.2185 105.719 89.8517 105.897C88.6632 106.075 87.4747 105.956 86.3456 105.6C85.0976 105.243 84.028 104.471 83.2554 103.46C82.7206 102.747 82.4829 101.915 82.4235 101.083V96.3293L82.5423 96.2699Z" fill="#010101"/>
<path d="M118.554 96.2104H120.337V96.3293C120.337 97.8744 120.337 99.4194 120.337 100.965C120.337 102.153 119.862 103.282 119.03 104.055C118.079 105.005 116.89 105.6 115.524 105.837C114.038 106.135 112.493 106.016 111.126 105.421C109.997 105.005 109.106 104.233 108.393 103.282C107.977 102.628 107.739 101.856 107.739 101.083V96.2699H109.522V96.4482C109.522 97.9338 109.522 99.4789 109.522 100.965C109.522 101.796 109.878 102.628 110.591 103.163C111.364 103.758 112.255 104.173 113.265 104.233C114.276 104.352 115.286 104.233 116.237 103.876C116.95 103.579 117.604 103.104 118.079 102.45C118.376 102.034 118.495 101.618 118.495 101.143L118.554 96.2104Z" fill="#010101"/>
<path d="M98.1712 106.016H96.3884V96.2104H98.1712V100.192C100.251 97.6367 103.044 96.6264 106.194 96.2104C106.253 96.8641 106.253 97.4584 106.253 98.0527C105.956 98.1121 105.718 98.1121 105.421 98.1715C103.638 98.4092 101.915 99.1817 100.489 100.311C99.3003 101.321 98.5278 102.747 98.2306 104.292C98.2901 104.827 98.2306 105.421 98.1712 106.016Z" fill="#010101"/>
<path d="M52.5322 93.5953C52.6511 93.5953 52.7699 93.5358 52.8888 93.5358C53.1859 93.5358 53.4236 93.5358 53.7207 93.4764C54.0179 93.417 54.1367 93.417 54.315 93.417C54.5527 93.417 54.8498 93.417 55.0875 93.417C55.9195 93.4764 56.7515 93.5358 57.5834 93.7736C59.0691 94.1301 60.4359 94.7838 61.6838 95.6752L61.8026 95.7346C61.4461 95.9723 61.149 96.3289 60.9113 96.6854C60.6736 97.042 60.4953 97.4579 60.4358 97.9334C58.3559 96.3883 55.8006 95.7346 53.2453 96.0912C53.3642 95.1403 53.0671 94.249 52.5322 93.5953Z" fill="#2877C5"/>
<path d="M56.9298 99.0038C56.9298 100.192 55.979 101.143 54.8499 101.143H54.7904C53.6019 101.143 52.6511 100.192 52.6511 99.0038C52.6511 97.8153 53.6019 96.8645 54.7904 96.8645C55.9195 96.805 56.9298 97.7558 56.9298 99.0038Z" fill="#010101"/>
<path d="M142.265 153.616C116.237 137.511 87.95 132.341 58.2371 138.284C35.5959 142.8 20.4423 152.427 20.3235 152.546L9.03259 135.134C9.7457 134.659 27.0386 123.546 53.3048 118.138C88.2471 110.888 122.773 117.069 153.259 135.966L142.265 153.616Z" fill="#2F80ED"/>
<path d="M81.8885 148.683L83.2553 151.536L86.4049 152.011L84.1467 154.21L84.6815 157.359L81.8885 155.874L79.0955 157.359L79.6303 154.21L77.3127 152.011L80.4623 151.536L81.8885 148.683Z" fill="#184077"/>
<path d="M71.8457 149.574L72.9748 151.832L75.5301 152.189L73.6879 153.972L74.1038 156.468L71.8457 155.279L69.5875 156.468L70.0035 153.972L68.2207 152.189L70.7166 151.832L71.8457 149.574Z" fill="#184077"/>
<path d="M91.9316 149.574L93.0607 151.832L95.5566 152.189L93.7144 153.972L94.1303 156.468L91.9316 155.279L89.6734 156.468L90.0894 153.972L88.2472 152.189L90.8025 151.832L91.9316 149.574Z" fill="#184077"/>
<path d="M14.9753 90.8021L6.23968 90.505L6.0614 89.1976L14.797 89.4947L14.9753 90.8021ZM15.3318 93.8328L6.59623 93.5357L6.41796 92.2283L15.1535 92.5254L15.3318 93.8328ZM10.2806 94.843L8.91384 94.7836L8.02245 88.1279L9.38924 88.1873L10.2806 94.843ZM13.3113 94.9619L11.9446 94.9025L11.0532 88.2468L12.42 88.3062L13.3113 94.9619Z" fill="white"/>
<path d="M5.70471 81.8887L14.3214 81.7104L14.3809 83.5527L7.48748 83.6715V83.7309L8.79485 85.692L7.19036 85.7514L5.76414 83.6121L5.70471 81.8887Z" fill="white"/>
<path d="M10.2806 66.3784L9.98351 68.2206C9.74581 68.2206 9.50811 68.2206 9.32983 68.3395C9.15155 68.3989 8.97328 68.5177 8.795 68.6366C8.61672 68.7555 8.49787 68.9337 8.37902 69.1714C8.26017 69.3497 8.20074 69.5874 8.14132 69.8251C8.08189 70.2411 8.14132 70.6571 8.26017 71.0136C8.43844 71.3702 8.67615 71.6673 9.09213 71.905C9.50811 72.1427 9.98351 72.321 10.5778 72.4398C11.172 72.5587 11.7069 72.5587 12.1823 72.4398C12.5982 72.321 12.9548 72.1427 13.2519 71.8456C13.4896 71.5485 13.6679 71.1919 13.7273 70.7759C13.7868 70.5382 13.7868 70.3005 13.7273 70.0628C13.6679 69.8251 13.6085 69.6468 13.5491 69.4686C13.4302 69.2903 13.3114 69.112 13.1331 68.9932C12.9548 68.8743 12.7765 68.7554 12.5388 68.696L12.8359 66.8538C13.1925 66.9727 13.6085 67.151 13.9056 67.3887C14.2622 67.6264 14.4999 67.9235 14.7376 68.28C14.9753 68.6366 15.1536 69.0526 15.213 69.528C15.3318 70.0034 15.3318 70.4788 15.213 71.0731C15.0941 71.8456 14.797 72.4993 14.381 73.0341C13.965 73.5689 13.3708 73.9849 12.6577 74.2226C11.9446 74.4603 11.1126 74.5197 10.2212 74.3415C9.27041 74.1632 8.49787 73.8661 7.90361 73.4501C7.30936 72.9747 6.89337 72.4399 6.65567 71.7862C6.41797 71.1325 6.35854 70.4194 6.47739 69.6468C6.53682 69.1714 6.7151 68.696 6.89338 68.28C7.07165 67.8641 7.36878 67.5075 7.66591 67.2698C7.96304 66.9727 8.37902 66.7944 8.795 66.6161C9.32983 66.4378 9.74581 66.3784 10.2806 66.3784Z" fill="white"/>
<path d="M9.68626 57.4646L10.2211 55.7412L15.5694 57.4051C16.1637 57.5834 16.6391 57.8805 16.9956 58.3559C17.3522 58.7719 17.5899 59.3068 17.6493 59.901C17.7087 60.4953 17.6493 61.149 17.471 61.8026C17.2333 62.5157 16.9362 63.0506 16.5202 63.4666C16.1042 63.8825 15.6288 64.1797 15.094 64.3579C14.5592 64.4768 13.9649 64.4768 13.3707 64.2985L8.02234 62.6346L8.55717 60.9112L13.7866 62.5157C14.0838 62.6346 14.3809 62.6346 14.678 62.5752C14.9752 62.5157 15.2129 62.3969 15.4506 62.1592C15.6883 61.9215 15.8071 61.6838 15.926 61.3272C16.0448 60.9707 16.0448 60.6735 15.9854 60.3764C15.926 60.0793 15.8071 59.8416 15.5694 59.6039C15.3911 59.3662 15.094 59.2473 14.7969 59.1285L9.68626 57.4646Z" fill="white"/>
<path d="M15.8071 49.2046C15.51 49.0858 15.2129 49.0858 14.9158 49.264C14.6186 49.4423 14.3809 49.68 14.2026 50.096C14.0838 50.3931 14.0244 50.6308 13.9649 50.8091C13.9055 50.9874 13.9649 51.2251 14.0838 51.4034C14.1432 51.5816 14.3215 51.7005 14.4404 51.7599C14.5592 51.8193 14.7375 51.8788 14.8563 51.8193C14.9752 51.8193 15.094 51.7599 15.2723 51.7005C15.3912 51.6411 15.51 51.5222 15.6289 51.4034C15.7477 51.2845 15.8666 51.1657 15.9854 50.9874L16.4608 50.3931C16.6985 50.096 16.9362 49.7989 17.2334 49.6206C17.4711 49.3829 17.7682 49.2046 18.0653 49.0858C18.3624 48.9669 18.6596 48.9075 18.9567 48.9075C19.2538 48.9075 19.551 48.9669 19.9075 49.1452C20.3829 49.3829 20.7395 49.68 20.9772 50.096C21.2149 50.512 21.3337 50.9874 21.2743 51.5222C21.2743 52.0571 21.096 52.6513 20.7989 53.305C20.5018 53.9587 20.1452 54.4341 19.7292 54.7906C19.3133 55.1472 18.8379 55.3849 18.3624 55.5037C17.887 55.5632 17.3522 55.5037 16.758 55.266L17.5305 53.6616C17.8276 53.7804 18.0653 53.7804 18.303 53.721C18.5407 53.6615 18.7784 53.5427 18.9567 53.3644C19.135 53.1861 19.3133 52.9484 19.4321 52.6513C19.551 52.3542 19.6104 52.1165 19.6698 51.8788C19.6698 51.6411 19.6698 51.4034 19.551 51.2251C19.4321 51.0468 19.3133 50.928 19.135 50.8091C18.9567 50.7497 18.7784 50.6903 18.6002 50.7497C18.4219 50.8091 18.2436 50.928 18.0653 51.0468C17.887 51.2251 17.7088 51.4034 17.4711 51.6411L16.8768 52.4136C16.4014 53.0079 15.926 53.4238 15.3912 53.6021C14.8563 53.8398 14.3215 53.7804 13.7272 53.5427C13.2518 53.305 12.8953 53.0079 12.6576 52.5919C12.4199 52.1759 12.301 51.7005 12.301 51.1657C12.301 50.6308 12.4793 50.096 12.717 49.5017C13.0141 48.9075 13.3113 48.4321 13.7272 48.135C14.1432 47.7784 14.5592 47.6001 15.0346 47.4813C15.51 47.4218 15.9854 47.4813 16.4608 47.6595L15.8071 49.2046Z" fill="white"/>
<path d="M17.0551 44.6285L15.8071 43.7966L19.6104 37.854L20.8583 38.686L19.4321 40.8847L25.4341 44.7474L24.4833 46.2925L18.4813 42.4298L17.0551 44.6285Z" fill="white"/>
<path d="M29.7724 32.3275C30.4855 32.9217 30.9609 33.5754 31.258 34.2885C31.5552 35.0016 31.6146 35.6553 31.4363 36.3684C31.3175 37.0815 30.9609 37.6758 30.4855 38.27C30.0101 38.8643 29.4158 39.2803 28.7621 39.518C28.1085 39.7557 27.3954 39.8151 26.6822 39.6368C25.9691 39.4586 25.1966 39.102 24.4835 38.5078C23.7704 37.9135 23.295 37.2598 22.9979 36.5467C22.7007 35.8336 22.6413 35.1799 22.7601 34.4668C22.879 33.7537 23.2356 33.1594 23.711 32.5652C24.1864 31.9709 24.7806 31.5549 25.4343 31.3172C26.088 31.0795 26.8011 31.0201 27.5142 31.1984C28.3462 31.3172 29.0593 31.6738 29.7724 32.3275ZM28.5839 33.6943C28.1085 33.2783 27.6925 33.0406 27.2171 32.9217C26.8011 32.8029 26.3851 32.8029 25.9691 32.8623C25.6126 32.9812 25.256 33.2189 24.9589 33.516C24.6618 33.8725 24.4835 34.2291 24.4835 34.5857C24.4241 35.0016 24.4835 35.3582 24.7212 35.7742C24.8995 36.1901 25.256 36.6061 25.7314 36.9627C26.2068 37.3787 26.6228 37.6164 27.0982 37.7352C27.5142 37.8541 27.9302 37.8541 28.3462 37.7946C28.7027 37.6758 29.0593 37.4381 29.3564 37.141C29.6535 36.7844 29.8318 36.4278 29.8318 36.0713C29.8912 35.6553 29.8318 35.2988 29.5941 34.8828C29.3564 34.5262 28.9999 34.1102 28.5839 33.6943Z" fill="white"/>
<path d="M28.9402 26.9202L30.6635 25.4345L36.2495 28.287L36.309 28.2275L34.3479 22.285L36.0713 20.7993L41.7167 27.3956L40.3499 28.5247L36.6655 24.246L36.6061 24.3054L38.5077 30.0103L37.6163 30.7828L32.268 27.9898L32.2086 28.0493L35.893 32.3279L34.5262 33.457L28.9402 26.9202Z" fill="white"/>
<path d="M48.1349 16.3427C47.9566 16.0456 47.6595 15.8673 47.3624 15.8673C47.0652 15.8079 46.7087 15.9268 46.2927 16.105C46.055 16.2239 45.8173 16.4022 45.6985 16.5804C45.5796 16.7587 45.4608 16.937 45.4608 17.1153C45.4608 17.2936 45.4608 17.4718 45.5796 17.6501C45.639 17.769 45.7579 17.8878 45.8767 17.9472C45.9956 18.0067 46.1144 18.0661 46.2927 18.0661C46.471 18.0661 46.5898 18.0661 46.7681 18.0661C46.9464 18.0661 47.1247 18.0067 47.303 17.9472L48.0755 17.7095C48.432 17.5907 48.7886 17.5313 49.1451 17.5313C49.5017 17.5313 49.7988 17.5313 50.096 17.5907C50.3931 17.6501 50.6902 17.769 50.9279 17.9472C51.1656 18.1255 51.4033 18.3632 51.5816 18.7198C51.8193 19.1952 51.9382 19.6706 51.8787 20.146C51.8193 20.6214 51.641 21.0374 51.2845 21.5128C50.9279 21.9288 50.4525 22.3447 49.8583 22.6419C49.264 22.9984 48.6697 23.1767 48.0755 23.2361C47.5407 23.2956 47.0058 23.2361 46.5304 22.9984C46.055 22.7607 45.6985 22.4042 45.4013 21.8693L46.9464 21.0374C47.1247 21.2751 47.303 21.4534 47.5407 21.5722C47.7784 21.6911 48.0161 21.6911 48.2538 21.6911C48.4915 21.6316 48.7886 21.5722 49.0857 21.3939C49.3829 21.2751 49.5611 21.0968 49.7394 20.8591C49.9177 20.6808 49.9771 20.5025 50.0365 20.2648C50.096 20.0866 50.0365 19.8489 49.9177 19.6706C49.7988 19.4923 49.68 19.3735 49.5611 19.314C49.3829 19.2546 49.2046 19.2546 48.9669 19.2546C48.7292 19.2546 48.432 19.314 48.1349 19.4329L47.1841 19.6706C46.471 19.8489 45.8173 19.9083 45.2825 19.7894C44.7476 19.6706 44.2722 19.314 43.9751 18.7792C43.7374 18.3038 43.6186 17.8284 43.678 17.353C43.7374 16.8776 43.9157 16.4022 44.2722 15.9862C44.6288 15.5702 45.0448 15.2137 45.5796 14.8571C46.1144 14.56 46.7087 14.3817 47.2435 14.3223C47.7784 14.2628 48.2538 14.3817 48.6697 14.6194C49.0857 14.8571 49.4423 15.1542 49.68 15.6296L48.1349 16.3427Z" fill="white"/>
<path d="M60.5547 13.1327C60.9112 14.024 60.9707 14.856 60.9112 15.5691C60.7924 16.3416 60.5547 16.9359 60.0793 17.4707C59.6039 18.0056 59.069 18.4215 58.3559 18.6593C57.6428 18.9564 56.9297 19.0158 56.2166 18.897C55.5035 18.7781 54.9092 18.481 54.315 18.0056C53.7801 17.5302 53.3047 16.8171 53.0076 15.9257C52.6511 15.0343 52.5916 14.2023 52.6511 13.4892C52.7699 12.7761 53.0076 12.1224 53.483 11.5876C53.9584 11.0528 54.4933 10.6368 55.2658 10.3991C55.9789 10.1614 56.692 10.0425 57.4051 10.1614C58.1182 10.2802 58.7125 10.5774 59.3067 11.0528C59.7822 11.5282 60.2576 12.2413 60.5547 13.1327ZM58.8313 13.7863C58.5936 13.1921 58.3559 12.7761 58.0588 12.4195C57.7617 12.063 57.4051 11.8847 56.9891 11.7659C56.6326 11.7064 56.2166 11.7064 55.8006 11.8847C55.3846 12.063 55.0875 12.3007 54.8498 12.5978C54.6121 12.895 54.4933 13.3109 54.4933 13.7863C54.4933 14.2617 54.5527 14.7372 54.7904 15.3314C55.0281 15.9257 55.2658 16.3416 55.5629 16.6982C55.86 17.0548 56.2166 17.233 56.6326 17.3519C56.9891 17.4113 57.4051 17.4113 57.8211 17.233C58.2371 17.0548 58.5342 16.8171 58.7719 16.5199C59.0096 16.2228 59.1285 15.8068 59.1285 15.3314C59.1285 14.856 59.069 14.3212 58.8313 13.7863Z" fill="white"/>
<path d="M64.2986 16.6395L62.397 8.20107L67.983 6.95312L68.3395 8.43877L64.5363 9.27073L65.0117 11.2912L68.4584 10.5187L68.815 12.0043L65.3683 12.7768L66.1408 16.283L64.2986 16.6395Z" fill="white"/>
<path d="M71.0137 7.90383L70.8949 6.41819L77.9666 5.70508L78.0854 7.19072L75.4707 7.42842L76.1838 14.5595L74.401 14.7378L73.6879 7.6067L71.0137 7.90383Z" fill="white"/>
<path d="M82.7205 14.2618L80.8188 5.4668L82.8393 5.58565L83.909 11.6471H83.9684L85.9295 5.76393L87.6528 5.88278L88.8413 12.0036H88.9007L90.6835 6.06105L92.704 6.17991L89.6733 14.6778L87.8905 14.5589L86.5831 8.79464H86.5237L84.5032 14.3212L82.7205 14.2618Z" fill="white"/>
<path d="M94.5463 15.5103L92.6447 15.0943L97.4581 7.30957L99.7758 7.8444L100.786 16.9365L98.8844 16.5206L98.1713 9.50832H98.1118L94.5463 15.5103ZM95.1405 12.1825L99.6569 13.1927L99.3598 14.5595L94.8434 13.5493L95.1405 12.1825Z" fill="white"/>
<path d="M102.569 17.5306L105.599 9.44873L108.808 10.6372C109.403 10.8749 109.878 11.1721 110.235 11.5286C110.591 11.8852 110.829 12.3606 110.888 12.836C110.948 13.3114 110.888 13.8462 110.71 14.3811C110.532 14.9159 110.235 15.3319 109.819 15.629C109.462 15.9261 108.987 16.1044 108.452 16.1638C107.917 16.2233 107.382 16.1044 106.729 15.8667L104.589 15.0942L105.183 13.668L107.026 14.3811C107.323 14.4999 107.62 14.5593 107.917 14.5593C108.155 14.5593 108.392 14.4999 108.571 14.3216C108.749 14.2028 108.868 13.9651 108.987 13.7274C109.106 13.4303 109.106 13.1926 109.106 13.0143C109.046 12.7766 108.987 12.5983 108.749 12.42C108.571 12.2417 108.333 12.0635 107.976 11.9446L106.847 11.5286L104.351 18.2437L102.569 17.5306ZM108.333 15.4507L108.987 19.9077L107.085 19.1946L106.491 14.797L108.333 15.4507Z" fill="white"/>
<path d="M110.71 20.7397L114.751 13.0737L119.921 15.8073L119.208 17.1147L115.642 15.2725L114.692 17.1147L117.96 18.838L117.247 20.1454L113.978 18.422L113.028 20.2642L116.593 22.1064L115.88 23.4138L110.71 20.7397Z" fill="white"/>
<path d="M123.487 28.7025L121.109 26.8009L126.517 20.0264L128.954 21.928C129.607 22.4628 130.083 23.0571 130.38 23.7108C130.677 24.3644 130.736 25.0776 130.618 25.7907C130.499 26.5038 130.142 27.2169 129.548 27.93C129.013 28.6431 128.359 29.1185 127.706 29.4156C127.052 29.7128 126.339 29.7722 125.626 29.6533C124.913 29.5939 124.2 29.2374 123.487 28.7025ZM123.487 26.7415L124.378 27.4546C124.794 27.8111 125.21 27.9894 125.626 28.1083C126.042 28.1677 126.458 28.1083 126.814 27.93C127.23 27.7517 127.587 27.3952 128.003 26.8603C128.419 26.3849 128.657 25.9095 128.775 25.4341C128.894 25.0181 128.835 24.6021 128.657 24.1862C128.478 23.8296 128.181 23.4731 127.765 23.1165L126.874 22.4034L123.487 26.7415Z" fill="white"/>
<path d="M128.478 32.9216L134.718 26.979L138.759 31.1982L137.689 32.2085L134.956 29.356L133.47 30.7822L136.025 33.4564L134.956 34.4666L132.4 31.7925L130.915 33.2187L133.708 36.1306L132.638 37.1408L128.478 32.9216Z" fill="white"/>
<path d="M142.027 35.061L137.927 40.6471L137.986 40.7065L144.523 38.5077L145.712 40.1717L136.976 42.8458L135.609 40.9442L140.839 33.4565L142.027 35.061Z" fill="white"/>
<path d="M139.71 46.9464L147.316 42.7866L150.109 47.8972L148.802 48.6103L146.9 45.1042L145.058 46.1145L146.841 49.3829L145.534 50.096L143.751 46.8276L141.909 47.8378L143.81 51.3439L142.503 52.057L139.71 46.9464Z" fill="white"/>
<path d="M143.573 54.1963L151.595 50.9873L152.249 52.7106L145.593 55.3254L146.96 58.7721L145.534 59.3069L143.573 54.1963Z" fill="white"/>
<path d="M152.427 67.6264C151.536 67.8641 150.704 67.9236 149.991 67.7453C149.277 67.567 148.624 67.2104 148.148 66.735C147.673 66.2596 147.316 65.6059 147.138 64.8928C146.96 64.1797 146.96 63.4666 147.138 62.7535C147.316 62.0998 147.673 61.5056 148.267 60.9707C148.802 60.4359 149.575 60.0794 150.466 59.8416C151.357 59.6039 152.189 59.5445 152.902 59.7228C153.615 59.9011 154.269 60.2576 154.745 60.733C155.22 61.2084 155.577 61.8621 155.755 62.5752C155.933 63.2883 155.933 64.0015 155.755 64.7146C155.577 65.4277 155.22 65.9625 154.685 66.4973C154.091 67.0322 153.318 67.3887 152.427 67.6264ZM151.952 65.8437C152.546 65.6654 153.021 65.4871 153.378 65.19C153.734 64.8928 153.972 64.5957 154.091 64.1797C154.21 63.8232 154.21 63.4072 154.091 62.9912C153.972 62.5752 153.794 62.2187 153.497 61.981C153.2 61.7433 152.843 61.565 152.368 61.5056C151.892 61.4461 151.417 61.5056 150.822 61.6244C150.228 61.7433 149.753 61.981 149.396 62.2781C149.04 62.5752 148.802 62.8724 148.683 63.2883C148.564 63.6449 148.564 64.0609 148.683 64.4769C148.802 64.8928 148.98 65.2494 149.277 65.4871C149.575 65.7248 149.931 65.9031 150.407 65.9625C150.882 66.0219 151.357 65.9625 151.952 65.8437Z" fill="white"/>
<path d="M148.624 70.9546L157.241 69.9443L157.656 73.3316C157.716 73.9853 157.656 74.5796 157.478 75.055C157.3 75.5304 157.003 75.9463 156.587 76.2435C156.171 76.5406 155.695 76.7189 155.101 76.7783C154.507 76.8377 154.032 76.7783 153.556 76.6C153.081 76.4217 152.724 76.0652 152.427 75.6492C152.13 75.2332 151.952 74.639 151.892 73.9853L151.654 71.846L153.081 71.6677L153.318 73.5099C153.378 73.8664 153.437 74.1636 153.616 74.3418C153.734 74.5795 153.972 74.6984 154.21 74.8173C154.448 74.9361 154.685 74.9361 154.982 74.8767C155.279 74.8173 155.517 74.7578 155.695 74.639C155.874 74.5201 156.052 74.2824 156.111 74.0447C156.23 73.807 156.23 73.5099 156.171 73.1533L156.052 71.9054L148.921 72.7374L148.624 70.9546Z" fill="white"/>
<path d="M149.456 79.5122L158.072 79.6905L157.954 85.5142L156.468 85.4548L156.527 81.4733L154.447 81.4138L154.388 85.0982L152.902 85.0388L152.962 81.3544L150.941 81.4138L150.882 85.4548L149.396 85.3953L149.456 79.5122Z" fill="white"/>
<path d="M152.486 92.942L148.327 94.5465L148.564 92.526L152.724 90.981L152.486 92.942ZM149.218 87.772L157.775 88.9011L157.359 92.2883C157.3 92.942 157.062 93.4768 156.824 93.8928C156.527 94.3088 156.171 94.6059 155.695 94.7842C155.22 94.9625 154.745 95.0219 154.15 94.9625C153.556 94.9031 153.081 94.7248 152.724 94.4277C152.367 94.1305 152.07 93.7145 151.952 93.2391C151.773 92.7637 151.773 92.1695 151.833 91.5158L152.13 89.2576L153.556 89.4359L153.318 91.3969C153.259 91.7535 153.259 92.0506 153.318 92.2883C153.378 92.526 153.497 92.7043 153.675 92.8826C153.853 93.0014 154.091 93.1203 154.388 93.1203C154.685 93.1797 154.923 93.1203 155.101 93.0609C155.339 93.0014 155.458 92.8232 155.636 92.5855C155.755 92.3478 155.874 92.1101 155.874 91.7535L156.052 90.5056L148.98 89.5547L149.218 87.772Z" fill="white"/>
<path d="M28.1083 136.263C28.4055 137.036 28.5243 137.689 28.4649 138.343C28.4055 138.997 28.1678 139.532 27.8112 140.007C27.4547 140.482 26.9198 140.839 26.3256 141.077C25.7313 141.314 25.1371 141.433 24.4834 141.374C23.8891 141.314 23.3543 141.077 22.8194 140.661C22.2846 140.245 21.9281 139.71 21.6309 138.937C21.3338 138.165 21.215 137.511 21.2744 136.857C21.3338 136.204 21.5715 135.669 21.9281 135.193C22.2846 134.718 22.8194 134.361 23.4137 134.124C24.008 133.886 24.6022 133.767 25.1965 133.827C25.7907 133.886 26.3256 134.124 26.8604 134.54C27.3952 134.956 27.7518 135.491 28.1083 136.263ZM26.385 136.917C26.2067 136.501 25.969 136.144 25.7313 135.847C25.4936 135.609 25.1965 135.431 24.8993 135.372C24.6022 135.312 24.3051 135.372 23.9485 135.491C23.6514 135.609 23.3543 135.847 23.2354 136.085C23.0571 136.323 22.9977 136.62 22.9977 136.976C22.9977 137.333 23.1166 137.749 23.2949 138.165C23.4731 138.581 23.7108 138.937 23.9485 139.234C24.1862 139.532 24.4834 139.65 24.7805 139.71C25.0776 139.769 25.3748 139.71 25.7313 139.591C26.0284 139.472 26.3256 139.234 26.4444 138.997C26.6227 138.759 26.6821 138.462 26.6821 138.105C26.6821 137.808 26.5633 137.392 26.385 136.917Z" fill="white"/>
<path d="M32.09 130.915L33.7539 130.32L35.3584 134.777C35.5366 135.312 35.5961 135.787 35.4772 136.263C35.3584 136.738 35.1207 137.154 34.7641 137.511C34.4076 137.867 33.9321 138.165 33.3379 138.343C32.7436 138.58 32.2088 138.64 31.674 138.58C31.1391 138.521 30.7232 138.343 30.3072 138.046C29.9506 137.749 29.6535 137.333 29.4752 136.857L27.8707 132.4L29.5346 131.806L31.0797 136.144C31.1391 136.382 31.3174 136.56 31.4363 136.738C31.6145 136.917 31.7928 136.976 32.0305 137.035C32.2682 137.095 32.5059 137.035 32.7436 136.976C32.9813 136.917 33.219 136.738 33.3379 136.56C33.5162 136.382 33.5756 136.203 33.635 135.966C33.6944 135.728 33.635 135.49 33.5756 135.253L32.09 130.915Z" fill="white"/>
<path d="M35.2393 131.331L34.8234 129.964L40.7659 128.122L41.1819 129.489L39.0426 130.143L40.7659 135.788L39.102 136.323L37.3787 130.677L35.2393 131.331Z" fill="white"/>
<path d="M51.6409 129.192C51.8191 129.964 51.8191 130.677 51.6409 131.271C51.4626 131.866 51.1655 132.4 50.69 132.816C50.2146 133.232 49.6798 133.53 49.0856 133.648C48.4319 133.827 47.8376 133.767 47.2434 133.648C46.6491 133.47 46.1737 133.173 45.6983 132.698C45.2823 132.222 44.9852 131.569 44.7475 130.796C44.5692 130.023 44.5692 129.31 44.7475 128.716C44.9258 128.122 45.2229 127.587 45.6983 127.171C46.1737 126.755 46.7085 126.458 47.3028 126.339C47.9565 126.161 48.5507 126.22 49.145 126.339C49.7392 126.517 50.2146 126.814 50.69 127.29C51.1655 127.765 51.4626 128.419 51.6409 129.192ZM49.8581 129.607C49.7392 129.132 49.561 128.776 49.3827 128.478C49.2044 128.181 48.9073 128.003 48.6696 127.884C48.3724 127.765 48.0753 127.765 47.7188 127.825C47.3622 127.884 47.1245 128.062 46.8868 128.3C46.7085 128.538 46.5302 128.835 46.4708 129.192C46.4114 129.548 46.4708 129.964 46.5302 130.439C46.5897 130.915 46.8274 131.271 47.0057 131.569C47.1839 131.866 47.4811 132.044 47.7188 132.163C48.0159 132.282 48.313 132.282 48.6696 132.222C49.0261 132.163 49.2638 131.985 49.5015 131.747C49.6798 131.509 49.8581 131.212 49.9175 130.855C50.0364 130.499 49.9769 130.083 49.8581 129.607Z" fill="white"/>
<path d="M53.4237 132.579L52.0569 125.389L56.9892 124.438L57.2863 125.864L54.0774 126.458L54.3745 127.944L57.2269 127.409L57.5241 128.835L54.6716 129.37L55.2064 132.282L53.4237 132.579Z" fill="white"/>
<path d="M63.6449 123.487L64.6551 130.796L62.8723 131.034L62.0998 125.388H62.0404L60.5547 126.577L60.3765 125.032L62.0404 123.665L63.6449 123.487Z" fill="white"/>
<path d="M66.8539 130.618C66.6162 130.618 66.3785 130.559 66.1408 130.44C65.9625 130.262 65.8437 130.083 65.7842 129.846C65.7248 129.608 65.8437 129.37 65.9625 129.192C66.1408 129.014 66.3191 128.895 66.6162 128.835C66.8539 128.835 67.0916 128.895 67.2699 129.014C67.4482 129.192 67.567 129.37 67.6264 129.608C67.6264 129.786 67.6264 129.965 67.567 130.083C67.5076 130.262 67.3887 130.381 67.2699 130.44C67.151 130.499 67.0322 130.559 66.8539 130.618Z" fill="white"/>
<path d="M71.4297 130.143C70.8355 130.202 70.3601 130.143 69.8846 129.964C69.4092 129.846 69.0527 129.608 68.7556 129.311C68.4584 129.014 68.3396 128.657 68.2802 128.301C68.2802 128.003 68.2801 127.706 68.4584 127.469C68.5773 127.231 68.7556 126.993 68.9933 126.815C69.231 126.637 69.5281 126.518 69.8252 126.399V126.339C69.4092 126.28 69.0527 126.161 68.815 125.864C68.5179 125.567 68.399 125.27 68.3396 124.854C68.3396 124.497 68.399 124.141 68.6367 123.784C68.8744 123.487 69.1715 123.19 69.5281 123.012C69.9441 122.833 70.3601 122.715 70.8949 122.655C71.4297 122.596 71.9051 122.655 72.3211 122.833C72.7371 122.952 73.0936 123.19 73.3313 123.487C73.569 123.784 73.7473 124.081 73.7473 124.497C73.8067 124.913 73.6879 125.27 73.4502 125.567C73.2125 125.864 72.9154 126.102 72.4994 126.221V126.28C72.7965 126.28 73.0936 126.399 73.3313 126.518C73.569 126.637 73.8067 126.874 73.985 127.112C74.1633 127.35 74.2227 127.647 74.2822 127.944C74.3416 128.36 74.2227 128.717 73.985 129.014C73.7473 129.311 73.4502 129.608 72.9748 129.846C72.4994 130.024 71.9645 130.143 71.4297 130.143ZM71.0732 125.686C71.2514 125.686 71.4297 125.626 71.5486 125.508C71.6674 125.389 71.7863 125.329 71.8457 125.151C71.9051 125.032 71.9645 124.854 71.9051 124.676C71.9051 124.497 71.8457 124.378 71.7268 124.26C71.608 124.141 71.4891 124.022 71.3703 123.962C71.2514 123.903 71.0732 123.844 70.8355 123.903C70.6572 123.903 70.4789 123.962 70.3601 124.081C70.2412 124.141 70.1224 124.26 70.0629 124.438C70.0035 124.557 69.9441 124.735 70.0035 124.913C70.0035 125.092 70.0629 125.21 70.1818 125.389C70.3006 125.508 70.4195 125.626 70.5383 125.686C70.7166 125.686 70.8949 125.745 71.0732 125.686ZM71.3109 128.895C71.5486 128.895 71.7268 128.835 71.8457 128.717C71.9645 128.598 72.1428 128.479 72.2023 128.36C72.2617 128.182 72.3211 128.063 72.3211 127.825C72.3211 127.647 72.2617 127.469 72.1428 127.35C72.024 127.231 71.9051 127.112 71.7268 127.053C71.5486 126.993 71.3703 126.934 71.1326 126.993C70.8949 126.993 70.7166 127.053 70.5978 127.171C70.4195 127.29 70.3006 127.409 70.2412 127.528C70.1818 127.647 70.1223 127.885 70.1223 128.063C70.1223 128.241 70.1818 128.419 70.3006 128.538C70.4195 128.657 70.5383 128.776 70.7166 128.835C70.8949 128.895 71.0732 128.954 71.3109 128.895Z" fill="white"/>
<path d="M75.1141 122.417L77.3129 122.358L79.2739 126.874H79.3334L81.1161 122.298L83.3149 122.239L83.4337 129.608L81.7104 129.667L81.651 125.151H81.5915L79.9276 129.667H78.7985L76.9563 125.21H76.8969L76.9563 129.726H75.233L75.1141 122.417Z" fill="white"/>
<path d="M86.6427 129.726L87.0587 122.417L90.0894 122.595C90.6242 122.655 91.0996 122.774 91.5156 123.011C91.9316 123.249 92.1693 123.546 92.407 123.962C92.5853 124.378 92.7041 124.794 92.6447 125.329C92.6447 125.864 92.4664 126.28 92.2287 126.636C91.991 126.993 91.6345 127.29 91.2185 127.468C90.8025 127.646 90.3271 127.706 89.7328 127.706L87.8906 127.587L87.9501 126.161L89.4951 126.22C89.7923 126.22 89.9705 126.22 90.1488 126.101C90.3271 126.042 90.5054 125.923 90.5648 125.745C90.6836 125.567 90.7431 125.388 90.7431 125.151C90.7431 124.913 90.7431 124.735 90.6242 124.556C90.5648 124.378 90.3865 124.259 90.2082 124.14C90.03 124.021 89.7923 123.962 89.5546 123.962L88.6632 123.903L88.3066 129.786L86.6427 129.726Z" fill="white"/>
<path d="M93.1201 130.142L93.9521 122.892L96.9828 123.249C97.5176 123.308 97.993 123.486 98.3496 123.724C98.7061 123.962 99.0033 124.259 99.1815 124.675C99.3598 125.091 99.4193 125.507 99.3598 125.982C99.3004 126.458 99.1221 126.874 98.8844 127.23C98.6467 127.587 98.2902 127.765 97.8742 127.943C97.4582 128.062 96.9828 128.122 96.3885 128.062L94.4869 127.824L94.6652 126.458L96.2103 126.636C96.448 126.636 96.6857 126.636 96.8639 126.576C97.0422 126.517 97.2205 126.458 97.2799 126.279C97.3393 126.101 97.4582 125.982 97.4582 125.745C97.4582 125.507 97.4582 125.329 97.3988 125.15C97.3393 124.972 97.2205 124.853 97.0422 124.794C96.8639 124.734 96.6262 124.615 96.3885 124.615L95.4971 124.497L94.8435 130.38L93.1201 130.142ZM97.5771 127.29L99.0033 130.796L97.1016 130.558L95.6754 127.052L97.5771 127.29Z" fill="white"/>
<path d="M107.085 128.3C106.966 129.073 106.669 129.727 106.313 130.261C105.897 130.796 105.421 131.153 104.886 131.331C104.292 131.509 103.698 131.569 103.044 131.45C102.39 131.331 101.856 131.093 101.321 130.737C100.786 130.38 100.489 129.846 100.251 129.251C100.013 128.657 100.013 127.944 100.132 127.171C100.251 126.399 100.548 125.745 100.905 125.21C101.321 124.675 101.796 124.319 102.331 124.141C102.925 123.962 103.52 123.903 104.173 124.022C104.827 124.141 105.362 124.378 105.897 124.735C106.431 125.091 106.729 125.626 106.966 126.221C107.204 126.815 107.263 127.528 107.085 128.3ZM105.302 128.003C105.362 127.528 105.362 127.112 105.302 126.755C105.243 126.399 105.065 126.102 104.827 125.923C104.589 125.686 104.292 125.567 103.995 125.507C103.638 125.448 103.341 125.507 103.044 125.626C102.747 125.745 102.509 125.983 102.331 126.28C102.153 126.577 102.034 126.993 101.915 127.468C101.856 127.944 101.856 128.36 101.915 128.716C101.974 129.073 102.153 129.37 102.39 129.548C102.628 129.786 102.925 129.905 103.222 129.964C103.579 130.024 103.876 129.964 104.173 129.846C104.47 129.727 104.708 129.489 104.886 129.192C105.124 128.895 105.243 128.479 105.302 128.003Z" fill="white"/>
<path d="M110.175 125.269L110.651 130.855H110.71L113.444 125.982L115.405 126.398L111.423 133.054L109.106 132.519L108.274 124.794L110.175 125.269Z" fill="white"/>
<path d="M118.079 127.112L116.237 134.243L114.513 133.827L116.356 126.696L118.079 127.112Z" fill="white"/>
<path d="M119.862 135.253L117.247 134.48L119.386 127.468L122.001 128.241C122.714 128.479 123.308 128.776 123.724 129.251C124.14 129.667 124.437 130.202 124.556 130.796C124.675 131.39 124.616 132.103 124.378 132.817C124.14 133.53 123.843 134.124 123.368 134.599C122.952 135.015 122.417 135.312 121.823 135.431C121.228 135.55 120.575 135.491 119.862 135.253ZM119.386 133.53L120.218 133.767C120.634 133.886 120.991 133.946 121.288 133.886C121.585 133.827 121.882 133.708 122.12 133.411C122.358 133.173 122.536 132.757 122.714 132.282C122.892 131.806 122.892 131.331 122.892 131.034C122.892 130.737 122.714 130.38 122.476 130.202C122.239 129.964 121.942 129.786 121.526 129.667L120.694 129.429L119.386 133.53Z" fill="white"/>
<path d="M124.2 136.62L126.696 129.727L131.509 131.45L131.034 132.817L127.884 131.688L127.349 133.114L130.261 134.183L129.786 135.55L126.874 134.481L126.339 135.907L129.489 137.036L129.013 138.403L124.2 136.62Z" fill="white"/>
<path d="M130.023 138.7L132.816 131.925L135.609 133.054C136.144 133.292 136.501 133.53 136.798 133.886C137.095 134.243 137.273 134.599 137.333 135.015C137.392 135.431 137.333 135.907 137.155 136.323C136.976 136.798 136.679 137.155 136.382 137.392C136.025 137.63 135.669 137.749 135.193 137.808C134.718 137.868 134.243 137.749 133.767 137.511L131.984 136.798L132.519 135.491L134.005 136.085C134.243 136.204 134.48 136.263 134.659 136.263C134.837 136.263 135.015 136.204 135.134 136.145C135.253 136.026 135.372 135.907 135.491 135.669C135.55 135.431 135.609 135.253 135.55 135.075C135.55 134.897 135.431 134.718 135.312 134.599C135.193 134.481 134.956 134.362 134.718 134.243L133.886 133.886L131.628 139.354L130.023 138.7ZM135.075 137.214L135.491 141.017L133.708 140.304L133.351 136.501L135.075 137.214Z" fill="white"/>
<path d="M141.849 138.283C141.968 138.046 141.909 137.808 141.849 137.57C141.73 137.333 141.552 137.154 141.196 137.036C141.017 136.917 140.78 136.857 140.661 136.857C140.542 136.857 140.364 136.857 140.245 136.917C140.126 136.976 140.067 137.095 140.007 137.214C139.948 137.333 139.948 137.392 139.948 137.511C139.948 137.63 140.007 137.689 140.067 137.808C140.126 137.927 140.185 137.986 140.304 138.105C140.423 138.224 140.542 138.283 140.661 138.402L141.196 138.818C141.493 139.056 141.73 139.294 141.909 139.531C142.087 139.769 142.265 140.007 142.325 140.244C142.384 140.482 142.444 140.72 142.444 141.017C142.444 141.314 142.384 141.552 142.265 141.79C142.087 142.206 141.79 142.503 141.433 142.74C141.077 142.919 140.661 143.038 140.185 142.978C139.71 142.978 139.235 142.8 138.64 142.562C138.105 142.324 137.63 141.968 137.274 141.611C136.917 141.255 136.739 140.839 136.679 140.423C136.62 139.947 136.679 139.472 136.917 138.997L138.462 139.71C138.403 139.947 138.343 140.126 138.403 140.304C138.462 140.482 138.521 140.66 138.7 140.839C138.819 141.017 139.056 141.136 139.294 141.255C139.532 141.374 139.71 141.433 139.888 141.433C140.067 141.433 140.245 141.433 140.364 141.374C140.483 141.314 140.601 141.195 140.661 141.076C140.72 140.958 140.72 140.839 140.72 140.72C140.661 140.601 140.601 140.482 140.483 140.304C140.364 140.185 140.185 140.007 139.948 139.829L139.353 139.353C138.819 138.937 138.462 138.521 138.284 138.046C138.105 137.57 138.105 137.095 138.343 136.62C138.521 136.204 138.819 135.906 139.175 135.669C139.532 135.49 139.948 135.372 140.423 135.372C140.898 135.372 141.374 135.49 141.909 135.728C142.444 135.966 142.86 136.263 143.157 136.62C143.454 136.976 143.632 137.333 143.692 137.749C143.751 138.165 143.692 138.581 143.513 138.997L141.849 138.283Z" fill="white"/>
<path d="M96.3291 37.6759L82.1263 31.9116L67.983 37.6759C67.983 41.6574 66.5568 43.6779 62.4564 45.4607C62.4564 55.2065 64.7146 66.022 74.1039 75.4707H90.2082C99.5975 65.9626 101.856 55.1471 101.856 45.4607C97.7553 43.6779 96.3291 41.6574 96.3291 37.6759ZM88.9009 72.44H75.4112C69.0527 65.606 65.9031 57.5835 65.5466 47.3623C68.7555 45.5201 70.4195 43.1431 70.8949 39.8152L82.1263 35.2395L93.3578 39.8152C93.8332 43.1431 95.4971 45.5201 98.7061 47.3623C98.409 57.5835 95.2594 65.606 88.9009 72.44Z" fill="#2F80ED"/>
<path d="M96.1508 76.5405H68.1613V78.561H96.1508V76.5405Z" fill="#2F80ED"/>
<path d="M98.4091 85.9893H65.8438V87.5343H98.4091V85.9893Z" fill="#2F80ED"/>
<path d="M98.4091 85.2166H65.8438L66.9134 79.3335H97.3988L98.4091 85.2166Z" fill="#2F80ED"/>
<path d="M73.6879 47.4218C75.7083 46.4116 77.3128 45.8768 79.9276 42.7866H86.2267V62.8725H89.5545V67.5672H75.2924V62.8725H78.8579V49.68L75.2924 51.3439L73.6879 47.4218Z" fill="#2F80ED"/>
<path d="M91.3373 46.1739V45.4014H94.368V46.1739H93.2983V48.9075H92.3475V46.1739H91.3373Z" fill="#2F80ED"/>
<path d="M89.7921 46.471C89.7921 46.3522 89.7327 46.2928 89.6733 46.2333C89.5544 46.1739 89.4356 46.1145 89.3167 46.1145C89.2573 46.1145 89.1384 46.1145 89.079 46.1739C89.0196 46.1739 88.9601 46.2333 88.9601 46.2928C88.9007 46.3522 88.9007 46.3522 88.9007 46.4116C88.9007 46.471 88.9007 46.471 88.9007 46.5305C88.9007 46.5899 88.9601 46.5899 88.9601 46.6493C89.0196 46.7087 89.079 46.7087 89.1384 46.7087L89.3761 46.7682L89.6733 46.8276C89.8515 46.887 90.0298 46.887 90.1487 47.0059C90.2675 47.0653 90.3864 47.1247 90.5052 47.2436C90.5646 47.303 90.6835 47.4218 90.6835 47.5407C90.7429 47.6595 90.7429 47.7784 90.7429 47.8972C90.7429 48.1349 90.6835 48.3132 90.5646 48.4915C90.4458 48.6698 90.2675 48.7886 90.0892 48.8481C89.8515 48.9075 89.6138 48.9669 89.3167 48.9669C89.0196 48.9669 88.7819 48.9075 88.5442 48.8481C88.3065 48.7886 88.1282 48.6104 88.0093 48.4321C87.8905 48.1944 87.8311 47.9567 87.8311 47.719H88.7224C88.7224 47.8378 88.7819 47.8972 88.7819 48.0161C88.8413 48.0755 88.9007 48.1349 88.9601 48.1944C89.079 48.2538 89.1384 48.2538 89.2573 48.2538C89.3167 48.2538 89.4356 48.2538 89.495 48.1944C89.5544 48.1944 89.6138 48.1349 89.6733 48.0755C89.7327 48.0161 89.7327 47.9567 89.7327 47.9567C89.7327 47.8972 89.7327 47.8378 89.6733 47.8378C89.6138 47.7784 89.5544 47.719 89.495 47.719C89.3761 47.6595 89.3167 47.6595 89.1979 47.6001L88.8413 47.5407C88.5442 47.4813 88.3065 47.3624 88.1282 47.1841C87.9499 47.0059 87.831 46.7682 87.8905 46.5305C87.8905 46.2928 87.9499 46.1145 88.0688 45.9362C88.1876 45.7579 88.3659 45.6391 88.6036 45.5202C88.8413 45.4014 89.079 45.4014 89.3167 45.4014C89.5544 45.4014 89.7921 45.4608 90.0298 45.5202C90.4458 45.6985 90.6835 46.1145 90.6835 46.5305H89.7921V46.471Z" fill="#2F80ED"/>
<path d="M45.8766 63.4667C46.8274 63.4667 47.7188 63.7638 48.4913 64.2987C49.0856 64.7741 49.6204 65.3683 49.977 66.022C49.9176 65.8437 49.7987 65.606 49.7987 65.3683L49.4422 63.9421C49.3233 63.4073 49.145 62.9319 49.0856 62.5159L48.9668 61.8622C47.8377 62.0999 46.7086 61.7434 45.8766 60.9708C45.5201 60.6143 45.2229 60.1983 45.0447 59.7229C44.8664 59.2475 44.7475 58.8315 44.6287 58.2967C44.5098 57.7618 44.5098 57.227 44.5098 56.6922C44.9258 56.6922 45.2824 56.7516 45.6389 56.811C46.4114 56.9893 47.184 57.4053 47.7188 57.9995C48.1348 58.4749 48.4319 59.0692 48.6102 59.6635C48.6102 59.5446 48.6102 59.4852 48.5508 59.3663C48.5508 59.1881 48.5508 58.9504 48.5508 58.7127L48.4913 57.7618C48.1348 57.3459 47.8971 56.9299 47.6594 56.4545C47.4217 55.8008 47.3028 55.0877 47.3028 54.3746C47.4217 53.4238 47.7782 52.5918 48.3725 51.8787C48.6102 51.5221 48.9073 51.225 49.2639 50.9873C49.5016 51.3439 49.6799 51.7598 49.8581 52.1758C50.1553 52.9484 50.2741 53.8397 50.2741 54.6717C50.2147 55.3254 50.0364 55.9791 49.6799 56.5139C49.4422 56.9893 49.2045 57.4053 48.9668 57.8213C48.9668 57.8213 48.9667 58.7127 49.0856 59.604C49.2045 60.4954 49.3233 61.3868 49.3233 61.3868C49.3827 60.7926 49.561 60.1983 49.9176 59.6635C50.393 59.0098 51.1061 58.5938 51.8786 58.4155C52.2352 58.2967 52.6511 58.2372 53.0077 58.2372C53.0077 58.3561 53.0077 58.4749 53.0077 58.5938C53.0077 58.7721 53.0077 59.0692 53.0077 59.4258C53.0077 60.2577 52.77 61.0303 52.2946 61.6839C51.7003 62.5753 50.7495 63.229 49.7393 63.4667L50.2741 65.4872C50.6307 66.438 51.0467 67.4482 51.0467 67.4482C50.9278 66.7351 50.9872 65.9626 51.2249 65.3089C51.6409 64.4769 52.2946 63.8233 53.1266 63.4667C53.5425 63.2884 53.9585 63.1102 54.3745 62.9913C54.4933 63.4073 54.5528 63.8233 54.6122 64.2392C54.7905 65.0712 54.731 65.9626 54.4339 66.7946C53.9585 67.9236 53.0671 68.8745 51.9975 69.4687L52.9483 71.2515L54.0774 72.9154C53.7208 72.1429 53.5425 71.2515 53.7208 70.4195C53.9585 69.4687 54.5528 68.5773 55.3253 67.9831C55.7413 67.6859 56.1573 67.3888 56.5732 67.2105C56.8109 67.6265 56.9892 68.0425 57.1081 68.5179C57.5241 69.4093 57.6429 70.3007 57.5241 71.2515C57.2864 72.6183 56.5732 73.8662 55.563 74.817C55.563 74.817 56.2167 75.5301 56.8704 76.2432L58.356 77.5506C57.7023 76.7781 57.2864 75.8273 57.2269 74.817C57.2269 73.6879 57.7023 72.6777 58.4154 71.8457C58.772 71.4298 59.1285 71.0138 59.5445 70.7166C59.9011 71.0732 60.1982 71.4892 60.4359 71.9052C60.6142 72.3211 60.9113 72.6777 61.149 73.1531C61.3867 73.6879 61.5056 74.2228 61.565 74.7576C61.6244 76.3027 61.2085 77.7883 60.3765 79.0957L60.9707 79.5117L61.565 79.9276L62.2781 80.2842L64.2392 81.2944L64.0609 81.7698C64.0609 81.7698 62.6347 81.0567 61.2679 80.2842L59.4851 79.0363L58.8908 78.6203C58.8314 78.5608 58.772 78.5014 58.6531 78.442C58.1777 78.9768 56.8109 80.6407 54.4339 80.403C53.0077 80.2842 51.6409 79.3334 50.6307 78.442C50.393 78.2043 50.1553 78.026 49.9176 77.7883C49.6799 77.5506 49.561 77.3723 49.4422 77.1941C49.2045 76.8375 49.0262 76.6592 49.0262 76.6592C49.4422 76.3027 49.9176 76.065 50.4524 75.8273C50.9278 75.649 51.4032 75.4707 51.8786 75.4113C52.4729 75.3519 53.1266 75.3519 53.7208 75.4707C54.731 75.7084 55.6819 76.1244 56.5732 76.7187C56.395 76.5998 56.2761 76.4215 56.1573 76.3027L55.2659 75.2924C54.9093 74.9359 54.6122 74.5793 54.3745 74.2822C54.1368 73.9851 54.0179 73.8068 54.0179 73.8068C52.8889 74.7576 51.3438 75.0547 49.9176 74.5793C48.6696 74.1633 47.7188 73.0937 47.0057 72.1429C46.7086 71.7269 46.4709 71.3109 46.2332 70.8949C46.0549 70.5384 45.9955 70.3601 45.9955 70.3601C46.4114 70.1224 46.8869 70.0035 47.4217 69.8847C47.8971 69.8253 48.3725 69.7658 48.7885 69.8253C49.3827 69.8847 49.9176 70.0035 50.4524 70.2412C51.2844 70.6572 51.9975 71.1921 52.5917 71.8457L52.4729 71.7269C52.4134 71.608 52.354 71.4892 52.2352 71.3109L51.5221 70.063C51.2844 69.5876 51.0467 69.1716 50.8684 68.815C50.6901 68.4585 50.6307 68.2208 50.6307 68.2208C49.4422 68.7556 48.0754 68.6962 46.9463 68.0425C46.4709 67.7454 46.0549 67.3294 45.6983 66.854C45.4012 66.3786 45.1635 65.9032 44.9258 65.3683C44.6881 64.8335 44.5098 64.2392 44.3315 63.645C44.9852 63.5261 45.4012 63.4667 45.8766 63.4667Z" fill="#2F80ED"/>
<path d="M117.901 63.4664C116.95 63.4664 116.058 63.7635 115.286 64.2983C114.692 64.7737 114.157 65.368 113.8 66.0217C113.86 65.8434 113.978 65.6057 113.978 65.368L114.335 63.9418C114.454 63.4069 114.632 62.9315 114.692 62.5155L114.81 61.8619C115.94 62.0996 117.069 61.743 117.901 60.9705C118.257 60.6139 118.554 60.1979 118.733 59.7225C118.911 59.2471 119.03 58.7717 119.089 58.3557C119.208 57.8209 119.208 57.2861 119.208 56.7513C118.792 56.7513 118.435 56.8107 118.079 56.8701C117.306 57.0484 116.534 57.4644 115.999 58.0586C115.583 58.534 115.286 59.1283 115.108 59.7225C115.108 59.6037 115.108 59.5443 115.167 59.4254C115.167 59.2471 115.167 59.0094 115.167 58.7717L115.226 57.8209C115.583 57.4049 115.821 56.989 116.058 56.5136C116.296 55.8599 116.415 55.1468 116.415 54.4337C116.296 53.4828 115.94 52.6509 115.286 51.9378C115.048 51.5812 114.751 51.2841 114.394 51.0464C114.157 51.4029 113.978 51.8189 113.8 52.2349C113.503 53.0074 113.384 53.8988 113.384 54.7308C113.444 55.3845 113.622 56.0381 113.978 56.573C114.216 57.0484 114.454 57.4644 114.692 57.8803C114.692 57.8803 114.692 58.7717 114.573 59.6631C114.454 60.5545 114.335 61.4459 114.335 61.4459C114.276 60.8516 114.097 60.2574 113.741 59.7225C113.265 59.0689 112.552 58.6529 111.78 58.4746C111.423 58.3558 111.007 58.2963 110.651 58.2963C110.651 58.4152 110.651 58.534 110.651 58.6529C110.651 58.8312 110.651 59.1283 110.651 59.4848C110.651 60.2574 110.888 61.0299 111.304 61.743C111.899 62.6344 112.849 63.2881 113.86 63.5258L113.325 65.5463C112.968 66.4971 112.552 67.5073 112.552 67.5073C112.671 66.7942 112.612 66.0217 112.374 65.368C111.958 64.536 111.304 63.8823 110.472 63.5258C110.056 63.3475 109.64 63.1692 109.224 63.0504C109.106 63.4664 109.046 63.8823 108.987 64.2983C108.808 65.1303 108.868 66.0217 109.165 66.8536C109.64 67.9827 110.532 68.9335 111.601 69.5278L110.651 71.3106L109.462 72.9745C109.819 72.2019 109.997 71.3106 109.819 70.4786C109.581 69.5278 108.987 68.6364 108.214 68.0421C107.798 67.745 107.382 67.4479 106.966 67.2696C106.729 67.6856 106.55 68.1016 106.431 68.577C106.075 69.4684 105.897 70.4192 106.015 71.37C106.253 72.7368 106.966 73.9847 107.976 74.9355C107.976 74.9355 107.323 75.6486 106.669 76.3617L105.183 77.6691C105.837 76.8966 106.194 75.9458 106.313 74.9355C106.313 73.8659 105.897 72.7962 105.183 71.9642C104.827 71.5483 104.411 71.1323 103.995 70.8352C103.638 71.1917 103.341 71.6077 103.104 72.0237C102.925 72.4396 102.628 72.7962 102.39 73.2716C102.153 73.8064 102.034 74.3413 101.974 74.8761C101.915 76.4212 102.331 77.9068 103.163 79.2142L102.628 79.6302L102.034 80.0461L101.321 80.4027L99.3597 81.4129L99.5974 81.8883C99.5974 81.8883 101.024 81.1752 102.39 80.4027L104.173 79.1548L104.767 78.7388C104.827 78.6793 104.886 78.6199 105.005 78.5605C105.481 79.0953 106.847 80.7593 109.224 80.5215C110.651 80.4027 112.017 79.4519 113.028 78.5605C113.265 78.3228 113.503 78.1445 113.681 77.9068C113.86 77.6691 114.038 77.4908 114.157 77.3126C114.394 76.956 114.573 76.7777 114.573 76.7777C114.157 76.4212 113.681 76.1835 113.147 75.9458C112.731 75.7675 112.255 75.6486 111.78 75.5892C111.185 75.5298 110.532 75.5298 109.938 75.6486C108.927 75.8863 107.976 76.3023 107.085 76.8966C107.263 76.7777 107.382 76.5994 107.501 76.4806L108.392 75.4704C108.749 75.1138 109.046 74.7573 109.284 74.4601C109.522 74.163 109.64 73.9847 109.64 73.9847C110.769 74.9355 112.315 75.2327 113.741 74.7573C114.989 74.3413 115.94 73.2716 116.653 72.3208C116.95 71.9048 117.187 71.4888 117.425 71.0729C117.603 70.7163 117.663 70.538 117.663 70.538C117.247 70.3003 116.771 70.1815 116.237 70.0626C115.761 70.0032 115.286 69.9438 114.81 70.0032C114.216 70.0626 113.681 70.1815 113.147 70.4192C112.315 70.8352 111.601 71.37 111.007 72.0237L111.126 71.9048C111.185 71.786 111.245 71.6671 111.364 71.4888L112.017 70.2409C112.255 69.7655 112.493 69.3495 112.671 68.993C112.849 68.6364 112.909 68.3987 112.909 68.3987C114.097 68.9335 115.464 68.8741 116.593 68.2204C117.069 67.9233 117.485 67.5073 117.841 67.0319C118.138 66.5565 118.376 66.0811 118.614 65.5463C118.851 65.0114 119.03 64.4172 119.208 63.8229C118.792 63.5258 118.376 63.4664 117.901 63.4664Z" fill="#2F80ED"/>
</svg>
