<svg id="visual" viewBox="0 0 900 600" width="900" height="600" xmlns="http://www.w3.org/2000/svg" xmlns:xlink="http://www.w3.org/1999/xlink" version="1.1"><rect x="0" y="0" width="900" height="600" fill="#ffffff"></rect><path d="M0 307L64 307L64 413L129 413L129 300L193 300L193 383L257 383L257 460L321 460L321 464L386 464L386 316L450 316L450 341L514 341L514 368L579 368L579 442L643 442L643 468L707 468L707 304L771 304L771 331L836 331L836 418L900 418L900 319L900 601L900 601L836 601L836 601L771 601L771 601L707 601L707 601L643 601L643 601L579 601L579 601L514 601L514 601L450 601L450 601L386 601L386 601L321 601L321 601L257 601L257 601L193 601L193 601L129 601L129 601L64 601L64 601L0 601Z" fill="#ffffff"></path><path d="M0 406L64 406L64 472L129 472L129 456L193 456L193 487L257 487L257 482L321 482L321 489L386 489L386 427L450 427L450 451L514 451L514 377L579 377L579 470L643 470L643 397L707 397L707 479L771 479L771 479L836 479L836 435L900 435L900 428L900 601L900 601L836 601L836 601L771 601L771 601L707 601L707 601L643 601L643 601L579 601L579 601L514 601L514 601L450 601L450 601L386 601L386 601L321 601L321 601L257 601L257 601L193 601L193 601L129 601L129 601L64 601L64 601L0 601Z" fill="#f2f2f2"></path><path d="M0 400L64 400L64 480L129 480L129 407L193 407L193 503L257 503L257 433L321 433L321 426L386 426L386 464L450 464L450 511L514 511L514 499L579 499L579 481L643 481L643 428L707 428L707 499L771 499L771 489L836 489L836 494L900 494L900 423L900 601L900 601L836 601L836 601L771 601L771 601L707 601L707 601L643 601L643 601L579 601L579 601L514 601L514 601L450 601L450 601L386 601L386 601L321 601L321 601L257 601L257 601L193 601L193 601L129 601L129 601L64 601L64 601L0 601Z" fill="#e5e5e5"></path><path d="M0 492L64 492L64 508L129 508L129 539L193 539L193 501L257 501L257 475L321 475L321 527L386 527L386 548L450 548L450 452L514 452L514 518L579 518L579 515L643 515L643 467L707 467L707 468L771 468L771 513L836 513L836 505L900 505L900 525L900 601L900 601L836 601L836 601L771 601L771 601L707 601L707 601L643 601L643 601L579 601L579 601L514 601L514 601L450 601L450 601L386 601L386 601L321 601L321 601L257 601L257 601L193 601L193 601L129 601L129 601L64 601L64 601L0 601Z" fill="#d8d8d8"></path><path d="M0 521L64 521L64 553L129 553L129 561L193 561L193 531L257 531L257 569L321 569L321 551L386 551L386 571L450 571L450 527L514 527L514 574L579 574L579 554L643 554L643 520L707 520L707 563L771 563L771 504L836 504L836 567L900 567L900 566L900 601L900 601L836 601L836 601L771 601L771 601L707 601L707 601L643 601L643 601L579 601L579 601L514 601L514 601L450 601L450 601L386 601L386 601L321 601L321 601L257 601L257 601L193 601L193 601L129 601L129 601L64 601L64 601L0 601Z" fill="#cccccc"></path></svg>