<svg id="visual" viewBox="0 0 900 600" width="900" height="600" xmlns="http://www.w3.org/2000/svg" xmlns:xlink="http://www.w3.org/1999/xlink" version="1.1"><rect x="0" y="0" width="900" height="600" fill="#FFFFFF"></rect><path d="M0 401L21.5 420.2C43 439.3 86 477.7 128.8 485.8C171.7 494 214.3 472 257.2 450.3C300 428.7 343 407.3 385.8 397.5C428.7 387.7 471.3 389.3 514.2 406.8C557 424.3 600 457.7 642.8 458.5C685.7 459.3 728.3 427.7 771.2 417.3C814 407 857 418 878.5 423.5L900 429L900 601L878.5 601C857 601 814 601 771.2 601C728.3 601 685.7 601 642.8 601C600 601 557 601 514.2 601C471.3 601 428.7 601 385.8 601C343 601 300 601 257.2 601C214.3 601 171.7 601 128.8 601C86 601 43 601 21.5 601L0 601Z" fill="#715DF2" stroke-linecap="round" stroke-linejoin="miter"></path></svg>